<?xml version="1.0" encoding="UTF-8"?>
<svg width="423px" height="484px" viewBox="0 0 423 484" version="1.1" xmlns="http://www.w3.org/2000/svg" xmlns:xlink="http://www.w3.org/1999/xlink">
    <title>Group</title>
    <g id="ai" stroke="none" stroke-width="1" fill="none" fill-rule="evenodd">
        <g id="Group" transform="translate(0.500000, 0.500000)" fill-rule="nonzero">
            <path d="M232.73493,0.5 C204.134162,0.5 176.573422,6.58663844 152.132764,18.2526955 C87.6510327,47.671448 42.9298316,111.073932 42.9298316,184.620813 L42.9298316,215.054005 L4.44879798,287.079227 C-5.4314674,305.339142 3.92878401,320.048519 24.7293427,320.048519 L42.9298316,320.048519 L42.9298316,388.015981 C42.9298316,409.319216 60.6103064,426.564691 82.4508928,426.564691 L137.052359,418.449173 L137.052359,472.21448 C137.052359,478.808338 143.292528,483.373317 150.572723,482.358877 L346.617989,448.375146 C353.898184,446.853486 360.138351,440.259627 360.138351,432.651329 L360.138351,320.048519 C397.579357,286.572007 421.5,238.386119 421.5,184.620813 C420.979986,83.1768388 336.737723,0.5 232.73493,0.5 Z M232.73493,318.526859 C156.292877,318.526859 94.4112141,257.660474 94.4112141,183.606373 C94.4112141,109.045052 156.81289,48.6858877 232.73493,48.6858877 C309.176983,48.6858877 371.058645,109.552272 371.058645,183.606373 C371.058645,258.167694 309.176983,318.526859 232.73493,318.526859 Z" id="Shape" fill="#A0ACBB"></path>
            <g id="brain" transform="translate(157.500000, 95.500000)" fill="#4DAFC9">
                <path d="M140.749436,71.3631445 C142.544722,71.3631445 144,69.902873 144,68.1014258 C144,66.2999785 142.544722,64.839707 140.749436,64.839707 L128.435648,64.839707 L128.435648,55.9596777 L140.749436,55.9596777 C142.544722,55.9596777 144,54.4994062 144,52.697959 C144,50.8965117 142.544722,49.4362402 140.749436,49.4362402 L128.435648,49.4362402 L128.435648,44.0997422 C128.435648,43.2350605 128.093688,42.4059316 127.484533,41.7943594 L118.084876,32.3546191 C117.475395,31.7423945 116.648126,31.3982832 115.785427,31.3982832 L110.465878,31.3982832 L110.465878,19.0533301 C110.465878,17.2518828 109.0106,15.7916113 107.215314,15.7916113 C105.420027,15.7916113 103.964749,17.2518828 103.964749,19.0533301 L103.964749,31.3982832 L95.1134628,31.3982832 L95.1134628,19.0533301 C95.1134628,17.2518828 93.6581851,15.7916113 91.8628984,15.7916113 C90.0676117,15.7916113 88.6123341,17.2518828 88.6123341,19.0533301 L88.6123341,31.3982832 L79.770149,31.3982832 L79.770149,19.7095879 C79.770149,8.84154102 70.9578691,0 60.1256885,0 C51.2633499,0 43.5611377,6.01069531 41.2119549,14.3610215 C34.4566321,15.0498965 28.1976704,18.0467637 23.3676569,22.9533672 C17.9132099,28.4950273 14.9093634,35.8374824 14.9093634,43.6280977 C14.9093634,47.4942129 15.6699955,51.3234707 17.1285237,54.8731992 C12.5657065,57.3061152 8.65072686,60.8049609 5.68296163,65.1290215 C1.9652912,70.546084 0,76.8969766 0,83.4954336 C0,95.6424004 6.6187991,106.53752 17.1268984,112.126801 C15.6699955,115.670006 14.9100135,119.496002 14.9100135,123.36277 C14.9100135,131.153385 17.91386,138.49584 23.368307,144.0375 C28.1979955,148.944104 34.4569571,151.940971 41.2122799,152.629846 C43.5611377,160.985717 51.264,167 60.1263386,167 C70.9581941,167 79.7707991,158.158459 79.7707991,147.290412 L79.7707991,135.592584 L88.6129842,135.592584 L88.6129842,147.94667 C88.6129842,149.748117 90.0682619,151.208389 91.8635485,151.208389 C93.6588352,151.208389 95.1141129,149.748117 95.1141129,147.94667 L95.1141129,135.592584 L103.9654,135.592584 L103.9654,147.94667 C103.9654,149.748117 105.420677,151.208389 107.215964,151.208389 C109.011251,151.208389 110.466528,149.748117 110.466528,147.94667 L110.466528,135.592584 L115.786077,135.592584 C116.648126,135.592584 117.474745,135.249125 118.084551,134.637227 L127.484208,125.206619 C128.093688,124.595047 128.436298,123.765266 128.436298,122.900258 L128.436298,117.554301 L140.749436,117.554301 C142.544722,117.554301 144,116.094029 144,114.292582 C144,112.491135 142.544722,111.030863 140.749436,111.030863 L128.435648,111.030863 L128.435648,102.160293 L140.749436,102.160293 C142.544722,102.160293 144,100.700021 144,98.8985742 C144,97.097127 142.544722,95.6368555 140.749436,95.6368555 L128.435648,95.6368555 L128.435648,86.7571523 L140.749436,86.7571523 C142.544722,86.7571523 144,85.2968809 144,83.4954336 C144,81.6939863 142.544722,80.2337148 140.749436,80.2337148 L128.435648,80.2337148 L128.435648,71.3631445 L140.749436,71.3631445 Z M60.1263386,160.476562 C54.7339774,160.476562 49.9865282,157.149283 47.9877562,152.344445 C50.3587178,151.918465 52.6705192,151.194689 54.8935801,150.171162 C58.124316,148.68284 61.0137427,146.645896 63.481246,144.11676 C64.7369391,142.829359 64.7151603,140.764365 63.4324876,139.504037 C62.1494898,138.244035 60.0918826,138.265889 58.8355395,139.552963 C56.925833,141.509994 54.6871693,143.087687 52.1819594,144.241684 C49.5346998,145.460262 46.7288126,146.135764 43.8413363,146.253186 C31.4657878,146.04835 21.4111422,135.79742 21.4111422,123.361791 C21.4111422,119.432398 22.4171919,115.560738 24.3203973,112.164637 C24.779377,111.346271 24.8642167,110.369061 24.5534628,109.483504 C24.2430339,108.597621 23.5669165,107.889176 22.6986907,107.539193 C12.8592325,103.573922 6.50112867,94.1358125 6.50112867,83.4954336 C6.50112867,72.8521191 12.8582573,63.4179238 22.6967404,59.4611328 C24.629526,58.4124902 25.171395,56.871002 24.3223476,54.8376465 C22.417842,51.4317598 21.4111422,47.5555332 21.4111422,43.6284238 C21.4111422,31.1927949 31.4657878,20.9418652 43.8413363,20.7370293 C46.7106095,20.854125 49.518772,21.5302793 52.1813093,22.7482051 C54.69107,23.9041582 56.9281084,25.4831562 58.8306637,27.4414922 C59.4677743,28.0970977 60.312921,28.4265312 61.1587178,28.4265312 C61.9765598,28.4265312 62.795377,28.118625 63.4272867,27.5005293 C64.7128849,26.2431367 64.7388894,24.1778164 63.4857968,22.8881328 C61.0231693,20.3534512 58.1321174,18.3116152 54.8854537,16.8161172 C52.6555666,15.7961777 50.3470158,15.0740332 47.9874312,14.6483789 C49.9862032,9.84745508 54.7336524,6.5234375 60.1263386,6.5234375 C67.3734718,6.5234375 73.2696704,12.4388906 73.2696704,19.7095879 L73.2696704,59.6992383 L63.1500135,59.6992383 L54.5259413,51.0465508 C55.4439007,49.3651348 55.9334357,47.4707285 55.9334357,45.5003242 C55.9334357,42.4095195 54.7339774,39.5036543 52.5551242,37.3179766 C48.0589436,32.8070195 40.7425734,32.8066934 36.2460677,37.3179766 C34.0678646,39.5036543 32.8680813,42.4095195 32.8680813,45.499998 C32.8680813,48.5904766 34.0675395,51.4963418 36.2460677,53.6820195 C38.494158,55.937498 41.4472957,57.0654004 44.4004334,57.0654004 C46.3052641,57.0654004 48.2087946,56.5931035 49.9247675,55.654707 L59.5048307,65.266666 C60.1981761,65.8893281 60.9643341,66.207998 61.8033047,66.2220234 L73.2696704,66.2220234 L73.2696704,80.2330625 L52.8990339,80.2330625 C51.4908894,75.440293 47.064921,71.9303574 41.8344379,71.9303574 C35.4789345,71.9303574 30.3085869,77.1181211 30.3085869,83.4947812 C30.3085869,89.876334 35.4789345,95.0683379 41.8344379,95.0683379 C47.0658962,95.0683379 51.4925147,91.5544883 52.899684,86.7565 L73.2696704,86.7565 L73.2696704,100.767539 L61.8033047,100.767539 C61.7161896,100.767539 61.6414266,100.772105 61.5725147,100.778629 C60.8190339,100.832121 60.0801806,101.145246 59.5038555,101.723549 L49.9234673,111.343336 C45.5482077,108.950865 39.9435847,109.606797 36.2457427,113.316676 C34.0652641,115.504637 32.8658059,118.412785 32.8677562,121.505873 C32.8697065,124.594395 34.0707901,127.495693 36.2457427,129.671912 C38.4944831,131.928043 41.4479458,133.055619 44.4014086,133.055619 C47.3535711,133.055619 50.3057336,131.928369 52.5515485,129.675174 C54.7297517,127.495693 55.9308352,124.594721 55.9327856,121.506199 C55.9340858,119.532859 55.4442257,117.635844 54.5246411,115.952145 L63.1500135,107.291303 L73.2686953,107.291303 L73.2686953,147.290086 C73.2696704,154.561109 67.3734718,160.476562 60.1263386,160.476562 L60.1263386,160.476562 Z M49.432307,45.5006504 C49.432307,46.8487188 48.9089661,48.1162227 47.9588262,49.069623 C45.9967856,51.0380703 42.8050564,51.0380703 40.8430158,49.069623 C39.8928758,48.1162227 39.369535,46.8487188 39.369535,45.5006504 C39.369535,44.152582 39.8928758,42.884752 40.8430158,41.9316777 C42.8050564,39.9635566 45.9971106,39.9635566 47.9588262,41.9316777 C48.9089661,42.884752 49.432307,44.1522559 49.432307,45.5006504 Z M46.8682619,83.4954336 C46.8682619,86.2799629 44.6100948,88.5455527 41.8344379,88.5455527 C39.0639819,88.5455527 36.8097156,86.2799629 36.8097156,83.4954336 C36.8097156,80.716123 39.0639819,78.4544473 41.8344379,78.4544473 C44.6100948,78.4544473 46.8682619,80.7157969 46.8682619,83.4954336 L46.8682619,83.4954336 Z M49.4323084,121.501959 C49.4313318,122.846113 48.9092912,124.108398 47.9588262,125.059189 C45.9967856,127.027311 42.8047314,127.027637 40.8397652,125.055928 C39.8925508,124.108398 39.3701851,122.846113 39.3695336,121.501959 C39.3685598,120.153238 39.8919007,118.884756 40.8430158,117.930377 C42.8047314,115.962582 45.9967856,115.962256 47.9581761,117.930051 C47.9585011,117.930377 47.9588262,117.930703 47.9591512,117.931355 C47.9591512,117.931355 47.9594763,117.931682 47.9594763,117.931682 C48.9102664,118.886061 49.4332822,120.153891 49.4323084,121.501959 L49.4323084,121.501959 Z M121.934519,121.548928 L114.439368,129.069146 L79.770474,129.069146 L79.770474,119.403369 L109.049282,119.403369 C110.844569,119.403369 112.299847,117.943098 112.299847,116.14165 L112.299847,98.1310918 C112.299847,96.3296445 110.844569,94.869373 109.049282,94.869373 C107.253995,94.869373 105.798718,96.3296445 105.798718,98.1310918 L105.798718,112.879932 L79.770474,112.879932 L79.770474,54.1200684 L105.798718,54.1200684 L105.798718,68.8317246 C105.798718,70.6331719 107.253995,72.0934434 109.049282,72.0934434 C110.844569,72.0934434 112.299847,70.6331719 112.299847,68.8317246 L112.299847,50.8583496 C112.299847,49.0569023 110.844569,47.5966309 109.049282,47.5966309 L79.770474,47.5966309 L79.770474,37.9217207 L114.438393,37.9217207 L121.934519,45.4500938 L121.934519,121.548928 Z" id="Shape"></path>
                <path d="M109.44,80.6206897 C107.849376,80.6206897 106.56,81.9088552 106.56,83.4979859 L106.56,83.5060423 C106.56,85.095173 107.849376,86.3793103 109.44,86.3793103 C111.030624,86.3793103 112.32,85.0871166 112.32,83.4979859 C112.32,81.9088552 111.030336,80.6206897 109.44,80.6206897 L109.44,80.6206897 Z" id="Path"></path>
            </g>
        </g>
    </g>
</svg>