<?xml version="1.0" encoding="UTF-8"?>
<svg width="1305px" height="488px" viewBox="0 0 1305 488" version="1.1" xmlns="http://www.w3.org/2000/svg" xmlns:xlink="http://www.w3.org/1999/xlink">
    <title>Group 2</title>
    <g id="sync" stroke="none" stroke-width="1" fill="none" fill-rule="evenodd">
        <g id="Group-2" transform="translate(-0.500000, 0.000000)" fill-rule="nonzero">
            <g id="sync" transform="translate(0.500000, 0.000000)">
                <path d="M225.09558,300.307692 C229.045418,300.307692 232.245902,296.946248 232.245902,292.8 C232.245902,288.653752 229.045418,285.292308 225.09558,285.292308 L198.191305,285.292308 C194.241467,285.292308 191.040984,288.653752 191.040984,292.8 C191.040984,296.946248 194.241467,300.307692 198.191305,300.307692 L225.09558,300.307692 Z" id="Path" fill="#FFD15B"></path>
                <path d="M153.876047,113.919591 C173.9493,81.7518901 216.026827,72.183626 247.669338,92.5894428 C250.946451,94.703971 255.292187,93.7157936 257.372254,90.3834343 C259.452321,87.0510751 258.481185,82.6342935 255.202198,80.5197652 C217.010149,55.8896566 166.229899,67.440946 142.004012,106.262884 C127.224196,129.947696 125.251929,158.781133 135.805057,183.715223 L125.160065,180.495308 C121.441442,179.368957 117.524092,181.524461 116.417036,185.306598 C115.309042,189.089688 117.428479,193.06908 121.150851,194.195431 L148.476685,202.462007 C151.654434,203.294858 155.90362,202.087509 157.219714,197.650716 L165.351566,169.872162 C166.45956,166.089072 164.340123,162.10968 160.61775,160.983329 C156.89819,159.856026 152.981777,162.012482 151.874721,165.79462 L148.465436,177.440248 C140.031745,156.931516 141.759354,133.337231 153.876047,113.919591 L153.876047,113.919591 Z" id="Path" fill="#9349F1"></path>
                <path d="M426.084725,157.775973 L419.319388,157.775973 L419.319388,47.9715223 C419.319388,21.520452 397.811162,0 371.373075,0 L47.948219,0 C21.5101316,0 0,21.520452 0,47.9715223 L0,166.588547 C0,170.537236 3.19921633,173.738516 7.14748957,173.738516 C11.0957628,173.738516 14.2949791,170.537236 14.2949791,166.588547 L14.2949791,47.9715223 C14.2949791,29.4054373 29.3914301,14.2999371 47.948219,14.2999371 L371.373075,14.2999371 C389.928911,14.2999371 405.025362,29.4054373 405.025362,47.9715223 L405.025362,157.775973 L390.253883,157.775973 L390.253883,51.1909148 C390.253883,38.7175564 379.75851,28.5693677 366.858721,28.5693677 L318.3063,28.5693677 C314.358027,28.5693677 311.158811,31.7706469 311.158811,35.7193362 C311.158811,39.6680255 314.358027,42.8693048 318.3063,42.8693048 L366.858721,42.8693048 C371.877211,42.8693048 375.958904,46.6025417 375.958904,51.1909148 L375.958904,157.775973 L292.724959,157.775973 C293.990541,143.873574 291.727169,129.863449 286.247427,117.107905 L297.184992,120.363524 C300.967444,121.492266 304.948119,119.333928 306.07361,115.550165 C307.200055,111.765448 305.045325,107.784346 301.260967,106.657511 L273.480105,98.3873805 C270.756435,97.3930582 265.024148,99.0165778 264.255078,104.330434 L256.324224,130.99219 C255.19778,134.776907 257.352509,138.75801 261.136867,139.884845 C263.99491,140.739981 268.437789,139.452033 270.025485,135.071486 L273.445797,123.574336 C277.907736,134.332656 279.62504,146.119617 278.338492,157.777879 C261.325561,157.816966 247.495645,171.705065 247.495645,188.771563 L247.495645,207.983052 C224.792359,222.866426 195.797376,223.171492 172.664288,208.49213 C169.330699,206.374786 164.91355,207.364341 162.799799,210.699086 C160.685095,214.033832 161.672402,218.451559 165.005991,220.566996 C178.445178,229.095479 193.785596,233.555153 209.576783,233.555153 C221.51595,233.701012 236.331266,230.289047 247.495645,224.482319 L247.495645,258.32169 L52.4625734,258.32169 C47.4440828,258.32169 43.3614367,254.588453 43.3614367,250.00008 L43.3614367,51.1909148 C43.3614367,46.6025417 47.4440828,42.8693048 52.4625734,42.8693048 L284.970409,42.8693048 C288.918682,42.8693048 292.117899,39.6680255 292.117899,35.7193362 C292.117899,31.7706469 288.918682,28.5693677 284.970409,28.5693677 L52.4625734,28.5693677 C39.5618313,28.5693677 29.0664576,38.7175564 29.0664576,51.1909148 L29.0664576,250.00008 C29.0664576,262.473439 39.5618313,272.621627 52.4625734,272.621627 L247.494692,272.621627 L247.494692,315.551945 L47.948219,315.551945 C29.3914301,315.551945 14.2949791,300.446445 14.2949791,281.88036 L14.2949791,200.017033 C14.2949791,196.068344 11.0957628,192.867065 7.14748957,192.867065 C3.19921633,192.867065 0,196.068344 0,200.017033 L0,281.88036 C0,308.332384 21.5091786,329.851882 47.948219,329.851882 L247.495645,329.851882 L247.495645,405.773108 C247.495645,409.721798 250.694861,412.923077 254.643134,412.923077 C258.591408,412.923077 261.790624,409.721798 261.790624,405.773108 L261.790624,188.771563 C261.790624,179.565263 269.245932,172.07591 278.409967,172.07591 L426.084725,172.07591 C435.24876,172.07591 442.705021,179.565263 442.705021,188.771563 L442.705021,212.917483 C442.705021,216.866173 445.904237,220.067452 449.85251,220.067452 C453.800784,220.067452 457,216.866173 457,212.917483 L457,188.771563 C457,171.680278 443.131964,157.775973 426.084725,157.775973 Z" id="Path" fill="#9349F1"></path>
                <path d="M449.844385,240.246154 C445.891096,240.246154 442.687816,243.431521 442.687816,247.360583 L442.687816,457.158473 C442.687816,466.319013 435.222083,473.771141 426.046407,473.771141 L278.183101,473.771141 C269.007425,473.771141 261.542646,466.319013 261.542646,457.158473 L261.542646,439.419829 C261.542646,435.490766 258.339366,432.305399 254.386077,432.305399 C250.432789,432.305399 247.229508,435.490766 247.229508,439.419829 L247.229508,457.158473 C247.229508,474.164806 261.116115,488 278.183101,488 L426.045453,488 C443.114347,488 457,474.164806 457,457.158473 L457,247.360583 C457,243.431521 453.796719,240.246154 449.844385,240.246154 L449.844385,240.246154 Z" id="Path" fill="#9349F1"></path>
                <path d="M356.365719,202.707692 C360.225194,202.707692 363.352459,199.346248 363.352459,195.2 C363.352459,191.053752 360.225194,187.692308 356.365719,187.692308 L325.388379,187.692308 C321.528904,187.692308 318.401639,191.053752 318.401639,195.2 C318.401639,199.346248 321.528904,202.707692 325.388379,202.707692 L356.365719,202.707692 Z" id="Path" fill="#FE646F"></path>
                <path d="M422.98535,300.414294 C424.121392,296.599193 421.948304,292.586129 418.132665,291.450248 L398.158709,285.50657 C395.840492,284.721447 389.764303,285.968802 388.900258,291.342618 L383.248884,310.330675 C382.112842,314.145776 384.28593,318.15884 388.101569,319.294721 C390.983962,320.156723 395.464695,318.859396 397.066879,314.44272 L397.706022,312.296845 C401.128564,324.91647 399.229394,338.610473 391.894141,350.173017 C379.314066,369.999051 353.695464,377.732078 332.302897,368.155886 C328.666987,366.529903 324.404429,368.156847 322.778217,371.790322 C321.152005,375.423798 322.779178,379.686717 326.412204,381.313661 C334.481752,384.924073 343.005908,386.646154 351.450292,386.646154 C372.188337,386.646154 392.421795,376.249282 404.067663,357.894513 C414.484261,341.476124 416.487231,321.758681 410.264952,304.149634 L414.020041,305.267257 C417.840485,306.403138 421.85027,304.229395 422.98535,300.414294 L422.98535,300.414294 Z" id="Path" fill="#9349F1"></path>
                <path d="M281.244875,348.96051 C280.106132,352.777656 282.284387,356.792871 286.109096,357.929362 L306.130538,363.876226 C309.402254,364.710806 313.755872,363.510857 315.117161,359.021623 L321.075808,339.039775 C322.214551,335.222629 320.036296,331.207414 316.211587,330.070923 C312.383023,328.934433 308.363706,331.109341 307.224963,334.925526 L306.57852,337.092742 C303.191195,324.493274 305.105477,310.834236 312.431193,299.308761 C324.975664,279.574979 350.55883,271.798384 371.936743,281.214333 C375.589004,282.820996 379.853989,281.172989 381.464798,277.528912 C383.076572,273.884835 381.422409,269.628284 377.772075,268.019698 C364.29503,262.08341 349.065556,261.147873 334.884263,265.381348 C320.557497,269.660013 308.250024,278.964428 300.228731,291.582164 C289.823015,307.952627 287.796979,327.628719 293.970465,345.215476 L290.231498,344.104946 C286.404861,342.970378 282.383617,345.144325 281.244875,348.96051 L281.244875,348.96051 Z" id="Path" fill="#9349F1"></path>
                <ellipse id="Oval" fill="#60B7FF" cx="382.081967" cy="195.2" rx="7.49180328" ry="7.50769231"></ellipse>
            </g>
            <g id="server" transform="translate(848.500000, 0.000000)">
                <polygon id="Path" fill="#465A61" points="29.9529579 116.369231 423.085531 116.369231 423.085531 412.923077 29.9529579 412.923077"></polygon>
                <path d="M444.834231,488 L11.9483778,488 C5.35014808,488 0,482.643735 0,476.035827 L0,357.318019 C0,350.711067 5.34919389,345.353846 11.9483778,345.353846 L444.834231,345.353846 C451.432461,345.353846 456.782609,350.710111 456.782609,357.318019 L456.782609,476.035827 C456.782609,482.643735 451.432461,488 444.834231,488 Z" id="Path" fill="#7A8C98"></path>
                <path d="M248.480367,439.2 L47.3050931,439.2 C35.6542545,439.2 26.2088382,429.115753 26.2088382,416.676923 C26.2088382,404.238093 35.6542545,394.153846 47.3050931,394.153846 L248.480367,394.153846 C260.131205,394.153846 269.576622,404.238093 269.576622,416.676923 C269.576622,429.115753 260.131205,439.2 248.480367,439.2 Z" id="Path" fill="#9FACBA"></path>
                <path d="M342.586957,450.461538 C333.281259,450.461538 325.738418,443.116483 325.738418,434.056917 L325.738418,395.543083 C325.738418,386.482567 333.282234,379.138462 342.586957,379.138462 C351.892654,379.138462 359.435495,386.483517 359.435495,395.543083 L359.435495,434.056917 C359.43647,443.116483 351.892654,450.461538 342.586957,450.461538 L342.586957,450.461538 Z" id="Path" fill="#FFD15B"></path>
                <path d="M444.834231,315.323077 L11.9483778,315.323077 C5.35014808,315.323077 0,309.966776 0,303.358824 L0,184.641176 C0,178.03418 5.34919389,172.676923 11.9483778,172.676923 L444.834231,172.676923 C451.432461,172.676923 456.782609,178.033224 456.782609,184.641176 L456.782609,303.359779 C456.782609,309.966776 451.432461,315.323077 444.834231,315.323077 Z" id="Path" fill="#7A8C98"></path>
                <path d="M248.480367,266.523077 L47.3050931,266.523077 C35.6542545,266.523077 26.2088382,256.43883 26.2088382,244 C26.2088382,231.56117 35.6542545,221.476923 47.3050931,221.476923 L248.480367,221.476923 C260.131205,221.476923 269.576622,231.56117 269.576622,244 C269.576622,256.43883 260.131205,266.523077 248.480367,266.523077 Z" id="Path" fill="#9FACBA"></path>
                <path d="M342.586957,277.784615 C333.281259,277.784615 325.738418,270.43956 325.738418,261.379994 L325.738418,222.866159 C325.738418,213.805644 333.282234,206.461538 342.586957,206.461538 C351.892654,206.461538 359.435495,213.806594 359.435495,222.866159 L359.435495,261.379994 C359.43647,270.43956 351.892654,277.784615 342.586957,277.784615 L342.586957,277.784615 Z" id="Path" fill="#60B7FF"></path>
                <path d="M444.834231,142.646154 L11.9483778,142.646154 C5.35014808,142.646154 0,137.289853 0,130.681901 L0,11.9642532 C0,5.35630116 5.35014808,0 11.9483778,0 L444.834231,0 C451.432461,0 456.782609,5.35630116 456.782609,11.9642532 L456.782609,130.682856 C456.782609,137.289853 451.432461,142.646154 444.834231,142.646154 Z" id="Path" fill="#7A8C98"></path>
                <path d="M248.480367,93.8461538 L47.3050931,93.8461538 C35.6542545,93.8461538 26.2088382,83.7619072 26.2088382,71.3230769 C26.2088382,58.8842466 35.6542545,48.8 47.3050931,48.8 L248.480367,48.8 C260.131205,48.8 269.576622,58.8842466 269.576622,71.3230769 C269.576622,83.7619072 260.131205,93.8461538 248.480367,93.8461538 Z" id="Path" fill="#9FACBA"></path>
                <path d="M342.586957,108.861538 C333.281259,108.861538 325.738418,101.516483 325.738418,92.4569175 L325.738418,53.9430825 C325.738418,44.8825673 333.282234,37.5384615 342.586957,37.5384615 C351.892654,37.5384615 359.435495,44.8835167 359.435495,53.9430825 L359.435495,92.4569175 C359.43647,101.516483 351.892654,108.861538 342.586957,108.861538 L342.586957,108.861538 Z" id="Path" fill="#60B7FF"></path>
                <g id="Group" transform="translate(408.109052, 0.000000)" fill="#596C76">
                    <path d="M36.5823105,345.70225 L0.13683698,345.70225 C6.48827694,345.70225 11.6366535,351.045469 11.6366535,357.637281 L11.6366535,476.065922 C11.6366535,482.656781 6.48827694,488.000953 0.13683698,488.000953 L36.5823105,488.000953 C42.9337505,488.000953 48.082127,482.657734 48.082127,476.065922 L48.082127,357.636328 C48.0812087,351.045469 42.9328321,345.70225 36.5823105,345.70225 L36.5823105,345.70225 Z" id="Path"></path>
                    <path d="M36.5823105,173.525937 L0.13683698,173.525937 C6.48827694,173.525937 11.6366535,178.869156 11.6366535,185.460969 L11.6366535,303.889609 C11.6366535,310.480469 6.48827694,315.824641 0.13683698,315.824641 L36.5823105,315.824641 C42.9337505,315.824641 48.082127,310.481422 48.082127,303.889609 L48.082127,185.460969 C48.0812087,178.869156 42.9328321,173.525937 36.5823105,173.525937 Z" id="Path"></path>
                    <path d="M36.5823105,0 L0.13683698,0 C6.48827694,0 11.6366535,5.34321875 11.6366535,11.9350313 L11.6366535,130.363672 C11.6366535,136.955484 6.48827694,142.298703 0.13683698,142.298703 L36.5823105,142.298703 C42.9337505,142.298703 48.082127,136.955484 48.082127,130.363672 L48.082127,11.9350313 C48.0812087,5.34321875 42.9328321,0 36.5823105,0 Z" id="Path"></path>
                </g>
                <path d="M406.236992,37.5384615 C405.886956,37.5384615 405.545695,37.5688397 405.201509,37.5897246 C396.381377,38.1137472 389.388453,45.2241257 389.388453,53.9435951 L389.388453,92.4564049 C389.388453,101.175874 396.381377,108.286253 405.201509,108.810275 C405.545695,108.83116 405.887931,108.861538 406.236992,108.861538 C415.54269,108.861538 423.085531,101.516679 423.085531,92.4573542 L423.085531,53.9435951 C423.085531,44.8833211 415.541715,37.5384615 406.236992,37.5384615 Z" id="Path" fill="#FFD15B"></path>
                <path d="M419.341411,37.5384615 L419.341411,101.353846 C421.603462,98.4547482 423.085531,93.6726737 423.085531,88.2518149 L423.085531,50.6404928 C423.08604,45.219634 421.603971,40.4375595 419.341411,37.5384615 Z" id="Path" fill="#FFC344"></path>
                <path d="M406.236992,206.461538 C405.886956,206.461538 405.545695,206.491917 405.201509,206.512802 C396.381377,207.036824 389.388453,214.147203 389.388453,222.866672 L389.388453,261.379482 C389.388453,270.098951 396.381377,277.20933 405.201509,277.733352 C405.545695,277.753288 405.887931,277.784615 406.236992,277.784615 C415.54269,277.784615 423.085531,270.439756 423.085531,261.380431 L423.085531,222.867621 C423.085531,213.806398 415.541715,206.461538 406.236992,206.461538 L406.236992,206.461538 Z" id="Path" fill="#FE646F"></path>
                <path d="M419.341411,210.215385 L419.341411,274.030769 C421.603462,271.131671 423.085531,266.349597 423.085531,260.928738 L423.085531,223.316489 C423.08604,217.896557 421.603971,213.114483 419.341411,210.215385 Z" id="Path" fill="#FD4755"></path>
                <path d="M406.236992,379.138462 C405.886956,379.138462 405.545695,379.16884 405.201509,379.189725 C396.381377,379.713747 389.388453,386.824126 389.388453,395.543595 L389.388453,434.056405 C389.388453,442.775874 396.381377,449.886253 405.201509,450.410275 C405.545695,450.430211 405.887931,450.461538 406.236992,450.461538 C415.54269,450.461538 423.085531,443.116679 423.085531,434.057354 L423.085531,395.544544 C423.085531,386.483321 415.541715,379.138462 406.236992,379.138462 L406.236992,379.138462 Z" id="Path" fill="#60B7FF"></path>
                <path d="M419.341411,386.646154 L419.341411,450.461538 C421.603462,447.562441 423.085531,442.780366 423.085531,437.359507 L423.085531,399.747258 C423.08604,394.327326 421.603971,389.545252 419.341411,386.646154 L419.341411,386.646154 Z" id="Path" fill="#26A6FE"></path>
            </g>
            <g id="sync" transform="translate(517.500000, 127.000000)" fill="#7A8C98">
                <path d="M266.471891,69.5182259 C268.57965,62.438571 264.547804,54.9915586 257.468445,52.8837117 L220.409699,41.8540729 C216.108588,40.3971263 204.835111,42.7118347 203.232002,52.6839834 L192.746706,87.9199789 C190.638947,94.9996339 194.670793,102.446646 201.750152,104.554493 C207.098009,106.154103 215.411351,103.746664 218.383969,95.55067 L219.569806,91.568587 C225.919829,114.98673 222.396199,140.39859 208.786713,161.855116 C185.446229,198.646139 137.914669,212.996261 98.2238994,195.225792 C91.4780021,192.208468 83.5694495,195.227575 80.552252,201.970189 C77.5350545,208.712802 80.5540353,216.623469 87.2945829,219.642577 C102.266445,226.342391 118.081767,229.538044 133.749082,229.538044 C172.225483,229.538044 209.765697,210.244647 231.372897,176.183838 C250.699366,145.716356 254.415584,109.126845 242.871058,76.4498679 L249.838074,78.5238324 C256.926349,80.6316792 264.365916,76.5978809 266.471891,69.5182259 L266.471891,69.5182259 Z" id="Path"></path>
                <path d="M1.13023729,160.023035 C-0.982532117,167.106485 3.05889903,174.55749 10.1550873,176.666467 L47.3019348,187.702018 C53.3721251,189.250742 61.449625,187.024005 63.975296,178.693368 L75.0306926,141.613201 C77.143462,134.529751 73.1020309,127.078747 66.0058426,124.96977 C58.9025045,122.860793 51.4452508,126.896754 49.3324814,133.97842 L48.1331004,138.000107 C41.8484158,114.619368 45.4000848,89.2723925 58.9918772,67.8846551 C82.2663022,31.2648234 129.732116,16.8338549 169.395697,34.3069601 C176.171931,37.2884325 184.084985,34.2302376 187.073607,27.4679514 C190.064016,20.7056652 186.994959,12.8068153 180.2223,9.82177447 C155.21762,-1.19415034 126.961564,-2.93022013 100.650256,4.92580788 C74.0690429,12.8656954 51.2343313,30.1318283 36.3519979,53.5464673 C17.0457185,83.9250121 13.2867049,120.437789 24.7407035,153.073403 L17.8035985,151.012601 C10.7038354,148.907192 3.24300669,152.941369 1.13023729,160.023035 L1.13023729,160.023035 Z" id="Path"></path>
            </g>
        </g>
    </g>
</svg>