<svg version="1.1" xmlns="http://www.w3.org/2000/svg" viewBox="0 0 1671.674112955729 1491.5565719604492" width="3343.348225911458" height="2983.1131439208984">
  <!-- svg-source:excalidraw -->
  
  <defs>
    <style>
      @font-face {
        font-family: "Virgil";
        src: url("https://excalidraw.com/Virgil.woff2");
      }
      @font-face {
        font-family: "Cascadia";
        src: url("https://excalidraw.com/Cascadia.woff2");
      }
    </style>
  </defs>
  <g stroke-linecap="round" transform="translate(346.33636474609375 732.0615692138672) rotate(0 107.1551513671875 35.510589599609375)"><path d="M17.76 0 M17.76 0 C53.01 1.76, 92.71 -0.38, 196.56 0 M17.76 0 C58.24 1.38, 97.01 2.03, 196.56 0 M196.56 0 C206.73 0.56, 212.4 6.27, 214.31 17.76 M196.56 0 C210.09 0.29, 215.96 8.21, 214.31 17.76 M214.31 17.76 C212.56 32.51, 215.7 42.59, 214.31 53.27 M214.31 17.76 C214.7 25.26, 214.04 33.73, 214.31 53.27 M214.31 53.27 C215.34 65.31, 209.96 69.7, 196.56 71.02 M214.31 53.27 C212.91 65.58, 209 71.44, 196.56 71.02 M196.56 71.02 C149.06 72.18, 100.63 73.8, 17.76 71.02 M196.56 71.02 C138.86 72.29, 79.31 72.01, 17.76 71.02 M17.76 71.02 C4.95 71.62, 1.95 66.89, 0 53.27 M17.76 71.02 C7.22 72.77, 1.67 63.89, 0 53.27 M0 53.27 C1.74 42.34, 0.64 28.74, 0 17.76 M0 53.27 C0.59 43.82, -1.22 33.28, 0 17.76 M0 17.76 C-1.04 5.23, 7.36 0.51, 17.76 0 M0 17.76 C-1.1 3.67, 7.84 0.15, 17.76 0" stroke="#364fc7" stroke-width="1" fill="none"></path></g><g transform="translate(394.99151611328125 755.0721588134766) rotate(0 58.5 12.5)"><text x="58.5" y="18" font-family="Virgil, Segoe UI Emoji" font-size="20px" fill="#364fc7" text-anchor="middle" style="white-space: pre;" direction="ltr">Telar Social</text></g><g stroke-linecap="round"><g transform="translate(341.3031005859375 765.0637750304687) rotate(0 -31.85638427734375 -34.38681496007369)"><path d="M0 0 C-10.62 -11.46, -53.09 -57.31, -63.71 -68.77 M0 0 C-10.62 -11.46, -53.09 -57.31, -63.71 -68.77" stroke="#000000" stroke-width="1" fill="none"></path></g><g transform="translate(341.3031005859375 765.0637750304687) rotate(0 -31.85638427734375 -34.38681496007369)"><path d="M-37.03 -55.07 C-44.37 -58.84, -51.71 -62.61, -63.71 -68.77 M-37.03 -55.07 C-42.73 -58, -48.43 -60.92, -63.71 -68.77" stroke="#000000" stroke-width="1" fill="none"></path></g><g transform="translate(341.3031005859375 765.0637750304687) rotate(0 -31.85638427734375 -34.38681496007369)"><path d="M-52.08 -41.12 C-55.28 -48.73, -58.48 -56.33, -63.71 -68.77 M-52.08 -41.12 C-54.57 -47.03, -57.05 -52.94, -63.71 -68.77" stroke="#000000" stroke-width="1" fill="none"></path></g></g><g stroke-linecap="round" transform="translate(10 648.2583160400391) rotate(0 129.79983520507812 35.94366455078125)"><path d="M17.97 0 M17.97 0 C85.41 -2.14, 152.87 0.01, 241.63 0 M17.97 0 C90.25 0.3, 164.21 0.81, 241.63 0 M241.63 0 C254.74 1.52, 261.05 4.93, 259.6 17.97 M241.63 0 C254.38 -1.47, 259.66 7.73, 259.6 17.97 M259.6 17.97 C259.04 32.24, 261.29 44.64, 259.6 53.92 M259.6 17.97 C258.76 28.68, 260 40.34, 259.6 53.92 M259.6 53.92 C258.64 63.94, 255.28 72.02, 241.63 71.89 M259.6 53.92 C257.7 67.46, 255.65 70.88, 241.63 71.89 M241.63 71.89 C187.51 69.8, 133.23 71.87, 17.97 71.89 M241.63 71.89 C155.5 71.96, 70.03 71.65, 17.97 71.89 M17.97 71.89 C5.57 72.72, 0.82 64.05, 0 53.92 M17.97 71.89 C5.2 69.66, 1.44 67.74, 0 53.92 M0 53.92 C-1.87 43.77, 1.55 34.77, 0 17.97 M0 53.92 C-0.28 42.75, 0.43 32.76, 0 17.97 M0 17.97 C1.6 6.96, 7.83 0.88, 17.97 0 M0 17.97 C-0.82 5.75, 7.94 -0.74, 17.97 0" stroke="#000000" stroke-width="1" fill="none"></path></g><g transform="translate(52.59141540527344 671.9530181884766) rotate(0 87 12.5)"><text x="87" y="18" font-family="Virgil, Segoe UI Emoji" font-size="20px" fill="#000000" text-anchor="middle" style="white-space: pre;" direction="ltr">WebSocket Server</text></g><g stroke-linecap="round" transform="translate(14.0216064453125 783.8520355224609) rotate(0 129.79983520507812 35.94366455078125)"><path d="M17.97 0 M17.97 0 C76.04 0.16, 136.93 1.26, 241.63 0 M17.97 0 C87.59 -0.26, 157.53 -1.63, 241.63 0 M241.63 0 C253.91 1.94, 257.75 5.38, 259.6 17.97 M241.63 0 C255.11 -0.82, 257.33 8.29, 259.6 17.97 M259.6 17.97 C257.67 26.31, 258.07 34.05, 259.6 53.92 M259.6 17.97 C259.09 25.91, 259.66 36.33, 259.6 53.92 M259.6 53.92 C259.5 66.17, 253.8 71.92, 241.63 71.89 M259.6 53.92 C261.15 66.2, 252.94 72.89, 241.63 71.89 M241.63 71.89 C187.66 69.64, 133.39 72.35, 17.97 71.89 M241.63 71.89 C187.65 73.28, 133.06 72.97, 17.97 71.89 M17.97 71.89 C5.39 71.62, 1.7 66.45, 0 53.92 M17.97 71.89 C4.59 73.38, -0.68 65.31, 0 53.92 M0 53.92 C-0.9 41.67, 1.74 25.77, 0 17.97 M0 53.92 C-0.62 44.58, 0.28 33.38, 0 17.97 M0 17.97 C1.79 7.81, 7.02 1.68, 17.97 0 M0 17.97 C-0.43 4.87, 3.69 1.26, 17.97 0" stroke="#000000" stroke-width="1" fill="none"></path></g><g transform="translate(68.61302185058594 807.5467376708984) rotate(0 75 12.5)"><text x="75" y="18" font-family="Virgil, Segoe UI Emoji" font-size="20px" fill="#000000" text-anchor="middle" style="white-space: pre;" direction="ltr">Telar Social UI</text></g><g stroke-linecap="round"><g transform="translate(344.62835693359375 781.7635955810547) rotate(0 -31.99957275390625 20.029327392578125)"><path d="M0 0 C-10.67 6.68, -53.33 33.38, -64 40.06 M0 0 C-10.67 6.68, -53.33 33.38, -64 40.06" stroke="#000000" stroke-width="1" fill="none"></path></g><g transform="translate(344.62835693359375 781.7635955810547) rotate(0 -31.99957275390625 20.029327392578125)"><path d="M-45.55 16.4 C-49.79 21.84, -54.04 27.29, -64 40.06 M-45.55 16.4 C-52.24 24.99, -58.94 33.58, -64 40.06" stroke="#000000" stroke-width="1" fill="none"></path></g><g transform="translate(344.62835693359375 781.7635955810547) rotate(0 -31.99957275390625 20.029327392578125)"><path d="M-34.66 33.8 C-41.41 35.24, -48.16 36.68, -64 40.06 M-34.66 33.8 C-45.31 36.07, -55.96 38.34, -64 40.06" stroke="#000000" stroke-width="1" fill="none"></path></g></g><g stroke-linecap="round" transform="translate(586.1149597167969 569.9071044921875) rotate(0 129.79983520507812 35.94366455078125)"><path d="M17.97 0 M17.97 0 C70.27 -1.96, 119.86 -3.19, 241.63 0 M17.97 0 C76.48 0.06, 134 0.42, 241.63 0 M241.63 0 C255.01 -1.21, 259.31 7.68, 259.6 17.97 M241.63 0 C253.93 -0.02, 261.43 7.24, 259.6 17.97 M259.6 17.97 C261.68 26.72, 258.11 35.04, 259.6 53.92 M259.6 17.97 C259.13 31.27, 260.88 46.92, 259.6 53.92 M259.6 53.92 C258.68 64.42, 254.77 72.66, 241.63 71.89 M259.6 53.92 C257.74 67.57, 254.39 72.7, 241.63 71.89 M241.63 71.89 C170.27 72.18, 100.86 71.43, 17.97 71.89 M241.63 71.89 C167.06 71.56, 94.45 71.58, 17.97 71.89 M17.97 71.89 C5.55 73.64, 0.94 64.56, 0 53.92 M17.97 71.89 C4.17 71.54, -0.66 66.65, 0 53.92 M0 53.92 C-0.02 39.54, -1.81 25.81, 0 17.97 M0 53.92 C0.17 45.03, 0.22 37.72, 0 17.97 M0 17.97 C1.4 5.79, 7.72 -0.52, 17.97 0 M0 17.97 C-0.16 8.24, 6.89 -0.44, 17.97 0" stroke="#000000" stroke-width="1" fill="none"></path></g><g transform="translate(666.4777984619141 593.601806640625) rotate(0 49 12.5)"><text x="49" y="18" font-family="Virgil, Segoe UI Emoji" font-size="20px" fill="#000000" text-anchor="middle" style="white-space: pre;" direction="ltr">Telar Web</text></g><g stroke-linecap="round"><g transform="translate(561.6554775523306 726.9153129735216) rotate(0 36.18178845980566 -39.819808586370186)"><path d="M0 0 C12.06 -13.27, 60.3 -66.37, 72.36 -79.64 M0 0 C12.06 -13.27, 60.3 -66.37, 72.36 -79.64" stroke="#000000" stroke-width="1" fill="none"></path></g><g transform="translate(561.6554775523306 726.9153129735216) rotate(0 36.18178845980566 -39.819808586370186)"><path d="M61 -51.88 C64.03 -59.28, 67.06 -66.69, 72.36 -79.64 M61 -51.88 C65.17 -62.07, 69.34 -72.26, 72.36 -79.64" stroke="#000000" stroke-width="1" fill="none"></path></g><g transform="translate(561.6554775523306 726.9153129735216) rotate(0 36.18178845980566 -39.819808586370186)"><path d="M45.81 -65.68 C52.9 -69.4, 59.98 -73.13, 72.36 -79.64 M45.81 -65.68 C55.56 -70.8, 65.31 -75.93, 72.36 -79.64" stroke="#000000" stroke-width="1" fill="none"></path></g></g><g stroke-linecap="round" transform="translate(605.9324035644531 879.3525848388672) rotate(0 129.79983520507812 35.94366455078125)"><path d="M17.97 0 M17.97 0 C77.82 -3.45, 135.71 -0.6, 241.63 0 M17.97 0 C83.18 -0.18, 147.89 -0.97, 241.63 0 M241.63 0 C252.97 -1.71, 258.61 7.16, 259.6 17.97 M241.63 0 C253.81 -0.46, 257.68 4.56, 259.6 17.97 M259.6 17.97 C258.75 28.03, 257.72 35.62, 259.6 53.92 M259.6 17.97 C259.64 29.48, 258.63 39.7, 259.6 53.92 M259.6 53.92 C259.76 64.15, 252.25 70.09, 241.63 71.89 M259.6 53.92 C259.42 65.22, 255.77 72.79, 241.63 71.89 M241.63 71.89 C154.05 72.56, 69.72 70.82, 17.97 71.89 M241.63 71.89 C164.06 74.09, 87.28 72.9, 17.97 71.89 M17.97 71.89 C6.54 73.05, 0.38 65.65, 0 53.92 M17.97 71.89 C5.37 72.8, 1.62 67.05, 0 53.92 M0 53.92 C1.43 42.44, 1.84 32.21, 0 17.97 M0 53.92 C-0.58 40.42, 1.04 27.14, 0 17.97 M0 17.97 C1.73 4.88, 7.13 1.58, 17.97 0 M0 17.97 C2.19 3.82, 3.84 1.23, 17.97 0" stroke="#000000" stroke-width="1" fill="none"></path></g><g transform="translate(621.5238189697266 903.0472869873047) rotate(0 114 12.5)"><text x="114" y="18" font-family="Virgil, Segoe UI Emoji" font-size="20px" fill="#000000" text-anchor="middle" style="white-space: pre;" direction="ltr">Telar Social Serverless</text></g><g stroke-linecap="round"><g transform="translate(560.684267805256 806.2041039829303) rotate(0 35.24583238688075 33.57910798167936)"><path d="M0 0 C11.75 11.19, 58.74 55.97, 70.49 67.16 M0 0 C11.75 11.19, 58.74 55.97, 70.49 67.16" stroke="#000000" stroke-width="1" fill="none"></path></g><g transform="translate(560.684267805256 806.2041039829303) rotate(0 35.24583238688075 33.57910798167936)"><path d="M43 55.14 C49.97 58.19, 56.94 61.23, 70.49 67.16 M43 55.14 C53.54 59.75, 64.07 64.35, 70.49 67.16" stroke="#000000" stroke-width="1" fill="none"></path></g><g transform="translate(560.684267805256 806.2041039829303) rotate(0 35.24583238688075 33.57910798167936)"><path d="M57.16 40.28 C60.54 47.1, 63.92 53.91, 70.49 67.16 M57.16 40.28 C62.27 50.58, 67.38 60.88, 70.49 67.16" stroke="#000000" stroke-width="1" fill="none"></path></g></g><g stroke-linecap="round" transform="translate(1047.8512878417969 10) rotate(0 129.79983520507812 35.94366455078125)"><path d="M17.97 0 M17.97 0 C77.23 -2.21, 135.23 -2.67, 241.63 0 M17.97 0 C74.39 0.54, 131.46 -0.39, 241.63 0 M241.63 0 C251.64 -1.87, 259.04 6.87, 259.6 17.97 M241.63 0 C251.97 -1.09, 257.66 3.76, 259.6 17.97 M259.6 17.97 C260.11 27.8, 260.95 34.74, 259.6 53.92 M259.6 17.97 C258.34 30.18, 260.24 41.31, 259.6 53.92 M259.6 53.92 C258.3 67.43, 251.81 70.87, 241.63 71.89 M259.6 53.92 C258.87 65.97, 254.47 71.73, 241.63 71.89 M241.63 71.89 C165.3 73.77, 85.28 71.42, 17.97 71.89 M241.63 71.89 C168.35 72.75, 93.32 72.42, 17.97 71.89 M17.97 71.89 C5.65 72.99, -1.89 66.8, 0 53.92 M17.97 71.89 C5.01 73.43, 2.2 67.34, 0 53.92 M0 53.92 C-0.79 47.59, 1.18 36.6, 0 17.97 M0 53.92 C-0.72 40.34, 0.53 27.53, 0 17.97 M0 17.97 C-1.51 7.79, 7 -0.05, 17.97 0 M0 17.97 C0.34 7.41, 4.9 0.37, 17.97 0" stroke="#e67700" stroke-width="1" fill="none"></path></g><g transform="translate(1142.214126586914 33.6947021484375) rotate(0 35 12.5)"><text x="35" y="18" font-family="Virgil, Segoe UI Emoji" font-size="20px" fill="#e67700" text-anchor="middle" style="white-space: pre;" direction="ltr">Actions</text></g><g stroke-linecap="round" transform="translate(1047.2911071777344 120.28462219238281) rotate(0 129.79983520507812 35.94366455078125)"><path d="M17.97 0 M17.97 0 C88.28 0.34, 160.11 2.58, 241.63 0 M17.97 0 C91.69 -1.32, 164.94 -1.12, 241.63 0 M241.63 0 C255.56 0.99, 259.6 7.26, 259.6 17.97 M241.63 0 C255.57 -0.54, 259.83 4.91, 259.6 17.97 M259.6 17.97 C258.97 30.64, 258.18 40.99, 259.6 53.92 M259.6 17.97 C258.77 26.99, 258.66 34.8, 259.6 53.92 M259.6 53.92 C260.02 64.85, 251.84 72.52, 241.63 71.89 M259.6 53.92 C260.42 65.93, 253.91 70, 241.63 71.89 M241.63 71.89 C164.84 74.43, 87.6 74.12, 17.97 71.89 M241.63 71.89 C169.17 73.54, 97.46 73.15, 17.97 71.89 M17.97 71.89 C7.84 69.93, 0.08 65.48, 0 53.92 M17.97 71.89 C6 72.24, 1.54 66.23, 0 53.92 M0 53.92 C0.9 40.22, -0.67 28.08, 0 17.97 M0 53.92 C-0.48 42.95, 0.4 34.38, 0 17.97 M0 17.97 C-0.21 4.71, 6.51 -0.93, 17.97 0 M0 17.97 C-1.54 3.82, 5.17 1.96, 17.97 0" stroke="#e67700" stroke-width="1" fill="none"></path></g><g transform="translate(1107.6539459228516 143.9793243408203) rotate(0 69 12.5)"><text x="69" y="18" font-family="Virgil, Segoe UI Emoji" font-size="20px" fill="#e67700" text-anchor="middle" style="white-space: pre;" direction="ltr">Authentication</text></g><g stroke-linecap="round" transform="translate(1052.5940856933594 224.03465270996094) rotate(0 129.79983520507812 35.94366455078125)"><path d="M17.97 0 M17.97 0 C76.3 -1.58, 138.2 0.61, 241.63 0 M17.97 0 C91.03 0.44, 164.76 0.93, 241.63 0 M241.63 0 C254.79 -1.25, 257.86 5.42, 259.6 17.97 M241.63 0 C252.86 -1.32, 260.49 7.42, 259.6 17.97 M259.6 17.97 C259.28 27.51, 258.52 41.93, 259.6 53.92 M259.6 17.97 C258.61 26.18, 258.62 34.79, 259.6 53.92 M259.6 53.92 C260.74 65.1, 251.96 71.99, 241.63 71.89 M259.6 53.92 C259.59 67.59, 254.64 69.82, 241.63 71.89 M241.63 71.89 C160.43 71.95, 79.11 73.01, 17.97 71.89 M241.63 71.89 C191.71 70.63, 142.48 70.83, 17.97 71.89 M17.97 71.89 C5.36 72.25, 1.52 64.84, 0 53.92 M17.97 71.89 C6.29 73.83, 1.16 64.85, 0 53.92 M0 53.92 C1.66 42.49, 0.78 29.66, 0 17.97 M0 53.92 C-0.34 40.82, -0.43 28.11, 0 17.97 M0 17.97 C1.15 7.34, 5.68 -1.69, 17.97 0 M0 17.97 C1.66 7.61, 6.48 -0.37, 17.97 0" stroke="#e67700" stroke-width="1" fill="none"></path></g><g transform="translate(1155.9569244384766 247.72935485839844) rotate(0 26 12.5)"><text x="26" y="18" font-family="Virgil, Segoe UI Emoji" font-size="20px" fill="#e67700" text-anchor="middle" style="white-space: pre;" direction="ltr">Admin</text></g><g stroke-linecap="round" transform="translate(1054.5950622558594 323.7775421142578) rotate(0 129.79983520507812 35.94366455078125)"><path d="M17.97 0 M17.97 0 C101.87 -3.06, 190.05 -1.57, 241.63 0 M17.97 0 C69.7 0.26, 122.33 -0.85, 241.63 0 M241.63 0 C251.92 0.89, 259.46 4.74, 259.6 17.97 M241.63 0 C254.71 -0.3, 261.83 6.14, 259.6 17.97 M259.6 17.97 C258.44 32.21, 260.86 44.17, 259.6 53.92 M259.6 17.97 C260.57 26.43, 258.92 33.38, 259.6 53.92 M259.6 53.92 C260.42 66.48, 254.61 72.08, 241.63 71.89 M259.6 53.92 C258.53 65.99, 254.37 73.47, 241.63 71.89 M241.63 71.89 C183.49 71.25, 124.81 72.73, 17.97 71.89 M241.63 71.89 C188.99 73.48, 135.47 73.98, 17.97 71.89 M17.97 71.89 C4.32 71.29, -0.34 64.17, 0 53.92 M17.97 71.89 C8.17 70.29, -2.23 67.44, 0 53.92 M0 53.92 C-1.8 39.22, -0.01 27.56, 0 17.97 M0 53.92 C-0.03 45.76, 0.25 37.73, 0 17.97 M0 17.97 C0.58 6.55, 6.55 0.14, 17.97 0 M0 17.97 C2.13 6.82, 7.02 -0.05, 17.97 0" stroke="#e67700" stroke-width="1" fill="none"></path></g><g transform="translate(1121.9579010009766 347.4722442626953) rotate(0 62 12.5)"><text x="62" y="18" font-family="Virgil, Segoe UI Emoji" font-size="20px" fill="#e67700" text-anchor="middle" style="white-space: pre;" direction="ltr">Notifications</text></g><g stroke-linecap="round" transform="translate(1056.7948913574219 419.85203552246094) rotate(0 129.79983520507812 35.94366455078125)"><path d="M17.97 0 M17.97 0 C77.47 1.24, 135.85 1.69, 241.63 0 M17.97 0 C69.87 -1.49, 121.1 -2.42, 241.63 0 M241.63 0 C254.78 1.7, 259.76 4.77, 259.6 17.97 M241.63 0 C254.92 -1.41, 259.66 5.09, 259.6 17.97 M259.6 17.97 C260.04 24.65, 258.7 36.24, 259.6 53.92 M259.6 17.97 C259.72 30.46, 259.36 42.09, 259.6 53.92 M259.6 53.92 C260.35 64.08, 254.94 70.5, 241.63 71.89 M259.6 53.92 C259.35 64.98, 253.73 71.4, 241.63 71.89 M241.63 71.89 C193.59 70.85, 143.71 72.98, 17.97 71.89 M241.63 71.89 C190.49 72.95, 140.79 73.87, 17.97 71.89 M17.97 71.89 C4.34 70.34, -0.76 67.34, 0 53.92 M17.97 71.89 C6.91 71.44, 1.34 67.79, 0 53.92 M0 53.92 C-0.81 43.52, 0.74 36.17, 0 17.97 M0 53.92 C0.76 42.02, 0.36 28.2, 0 17.97 M0 17.97 C1.47 6.59, 7.08 0.54, 17.97 0 M0 17.97 C-0.21 4.61, 8.24 -2.3, 17.97 0" stroke="#e67700" stroke-width="1" fill="none"></path></g><g transform="translate(1153.157730102539 443.54673767089844) rotate(0 33 12.5)"><text x="33" y="18" font-family="Virgil, Segoe UI Emoji" font-size="20px" fill="#e67700" text-anchor="middle" style="white-space: pre;" direction="ltr">Profile</text></g><g stroke-linecap="round" transform="translate(1058.8240661621094 520.1674957275391) rotate(0 129.79983520507812 35.94366455078125)"><path d="M17.97 0 M17.97 0 C73.26 -0.11, 126.52 -1.61, 241.63 0 M17.97 0 C107.75 1.07, 195.65 1.03, 241.63 0 M241.63 0 C252.8 -0.38, 258.54 6.07, 259.6 17.97 M241.63 0 C251.78 -0.43, 260.44 8.03, 259.6 17.97 M259.6 17.97 C259.8 27.09, 257.72 35.15, 259.6 53.92 M259.6 17.97 C259.69 30.46, 259.81 42.76, 259.6 53.92 M259.6 53.92 C258.24 64.39, 255.07 72.2, 241.63 71.89 M259.6 53.92 C258.68 67.76, 252.18 73.57, 241.63 71.89 M241.63 71.89 C179.19 71.87, 118.54 72.75, 17.97 71.89 M241.63 71.89 C168.79 71.84, 97.06 72.31, 17.97 71.89 M17.97 71.89 C6.36 70.56, 1.72 64.63, 0 53.92 M17.97 71.89 C5.42 72, 1.59 65.27, 0 53.92 M0 53.92 C-0.68 41.8, -0.55 32.51, 0 17.97 M0 53.92 C0.79 42.4, 0.43 32.71, 0 17.97 M0 17.97 C1.99 7.03, 6.65 -0.57, 17.97 0 M0 17.97 C-0.02 4.94, 5.11 -1.88, 17.97 0" stroke="#e67700" stroke-width="1" fill="none"></path></g><g transform="translate(1154.1869049072266 543.8621978759766) rotate(0 34 12.5)"><text x="34" y="18" font-family="Virgil, Segoe UI Emoji" font-size="20px" fill="#e67700" text-anchor="middle" style="white-space: pre;" direction="ltr">Setting</text></g><g stroke-linecap="round" transform="translate(1064.7196960449219 615.2851104736328) rotate(0 129.79983520507812 35.94366455078125)"><path d="M17.97 0 M17.97 0 C83.45 2.27, 152.26 1.98, 241.63 0 M17.97 0 C70.66 -1.97, 122.02 -1.62, 241.63 0 M241.63 0 C253.18 0.7, 257.62 6.69, 259.6 17.97 M241.63 0 C255.11 2.05, 260.67 5.31, 259.6 17.97 M259.6 17.97 C258.26 24.89, 257.44 34.85, 259.6 53.92 M259.6 17.97 C259.09 29, 259.89 37.31, 259.6 53.92 M259.6 53.92 C257.68 65.97, 255.41 72.59, 241.63 71.89 M259.6 53.92 C257.49 65.46, 251.98 73.87, 241.63 71.89 M241.63 71.89 C183.37 70.49, 124.56 73.24, 17.97 71.89 M241.63 71.89 C159.03 69.66, 75.47 71.1, 17.97 71.89 M17.97 71.89 C7.76 70.83, -0.1 67.07, 0 53.92 M17.97 71.89 C3.94 73, 1.12 64.4, 0 53.92 M0 53.92 C-1.7 45.84, -0.89 40.4, 0 17.97 M0 53.92 C-0.46 44.17, -0.81 35.1, 0 17.97 M0 17.97 C-1.37 7.69, 4.82 0.61, 17.97 0 M0 17.97 C-1.41 4.97, 4.27 1.3, 17.97 0" stroke="#e67700" stroke-width="1" fill="none"></path></g><g transform="translate(1154.082534790039 638.9798126220703) rotate(0 40 12.5)"><text x="40" y="18" font-family="Virgil, Segoe UI Emoji" font-size="20px" fill="#e67700" text-anchor="middle" style="white-space: pre;" direction="ltr">Storage</text></g><g stroke-linecap="round" transform="translate(587.3728942871094 306.0140838623047) rotate(0 129.79983520507812 35.94366455078125)"><path d="M17.97 0 M17.97 0 C80.57 -0.04, 142.74 0.86, 241.63 0 M17.97 0 C89.84 -0.11, 159.87 -0.35, 241.63 0 M241.63 0 C253.01 0.1, 261.28 4.92, 259.6 17.97 M241.63 0 C253.24 0.6, 258.62 6.96, 259.6 17.97 M259.6 17.97 C259.3 28.37, 261.3 38.47, 259.6 53.92 M259.6 17.97 C259.62 29.46, 259.87 42.59, 259.6 53.92 M259.6 53.92 C257.96 67.87, 252.83 70.6, 241.63 71.89 M259.6 53.92 C257.53 67.92, 251.41 73.51, 241.63 71.89 M241.63 71.89 C152.43 69.68, 65.01 72.72, 17.97 71.89 M241.63 71.89 C153.33 72.34, 66.79 71.95, 17.97 71.89 M17.97 71.89 C7.03 70.77, 0 66.35, 0 53.92 M17.97 71.89 C5.51 71.4, 0.62 64.65, 0 53.92 M0 53.92 C-1.34 40.83, -0.09 29.38, 0 17.97 M0 53.92 C1.2 46.14, 0.3 39.78, 0 17.97 M0 17.97 C-1.91 4.06, 7.27 -0.62, 17.97 0 M0 17.97 C-0.01 8.12, 5.89 0.68, 17.97 0" stroke="#000000" stroke-width="1" fill="none"></path></g><g transform="translate(652.2357330322266 329.7087860107422) rotate(0 64.5 12.5)"><text x="64.5" y="18" font-family="Virgil, Segoe UI Emoji" font-size="20px" fill="#000000" text-anchor="middle" style="white-space: pre;" direction="ltr">Microservices</text></g><g stroke-linecap="round"><g transform="translate(723.9053556365538 566.7626190185547) rotate(0 1.585220040145316 -92.49180603027344)"><path d="M0 0 C0.53 -30.83, 2.64 -154.15, 3.17 -184.98 M0 0 C0.53 -30.83, 2.64 -154.15, 3.17 -184.98" stroke="#000000" stroke-width="1" fill="none"></path></g><g transform="translate(723.9053556365538 566.7626190185547) rotate(0 1.585220040145316 -92.49180603027344)"><path d="M12.95 -156.62 C10.63 -163.35, 8.31 -170.07, 3.17 -184.98 M12.95 -156.62 C9.42 -166.85, 5.9 -177.07, 3.17 -184.98" stroke="#000000" stroke-width="1" fill="none"></path></g><g transform="translate(723.9053556365538 566.7626190185547) rotate(0 1.585220040145316 -92.49180603027344)"><path d="M-7.57 -156.97 C-5.02 -163.61, -2.48 -170.26, 3.17 -184.98 M-7.57 -156.97 C-3.7 -167.07, 0.17 -177.17, 3.17 -184.98" stroke="#000000" stroke-width="1" fill="none"></path></g></g><g stroke-linecap="round"><g transform="translate(844.7903442382812 301.69541931152344) rotate(0 95.19180297851562 -129.64187622070312)"><path d="M0 0 C31.73 -43.21, 158.65 -216.07, 190.38 -259.28" stroke="#000000" stroke-width="1.5" fill="none" stroke-dasharray="8 9"></path></g><g transform="translate(844.7903442382812 301.69541931152344) rotate(0 95.19180297851562 -129.64187622070312)"><path d="M181.97 -230.49 C184.59 -239.46, 187.21 -248.43, 190.38 -259.28" stroke="#000000" stroke-width="1.5" fill="none"></path></g><g transform="translate(844.7903442382812 301.69541931152344) rotate(0 95.19180297851562 -129.64187622070312)"><path d="M165.43 -242.63 C173.2 -247.82, 180.98 -253.01, 190.38 -259.28" stroke="#000000" stroke-width="1.5" fill="none"></path></g></g><g stroke-linecap="round"><g transform="translate(857.0046997070312 324.6244354248047) rotate(0 91.98028564453125 -85.16497802734375)"><path d="M0 0 C30.66 -28.39, 153.3 -141.94, 183.96 -170.33" stroke="#000000" stroke-width="1.5" fill="none" stroke-dasharray="8 9"></path></g><g transform="translate(857.0046997070312 324.6244354248047) rotate(0 91.98028564453125 -85.16497802734375)"><path d="M170.25 -143.65 C173.01 -149.02, 175.77 -154.39, 183.96 -170.33" stroke="#000000" stroke-width="1.5" fill="none"></path></g><g transform="translate(857.0046997070312 324.6244354248047) rotate(0 91.98028564453125 -85.16497802734375)"><path d="M156.3 -158.71 C161.87 -161.05, 167.44 -163.38, 183.96 -170.33" stroke="#000000" stroke-width="1.5" fill="none"></path></g></g><g stroke-linecap="round"><g transform="translate(858.0275268554688 351.57334899902344) rotate(0 92.55093383789062 -48.62535095214844)"><path d="M0 0 C30.85 -16.21, 154.25 -81.04, 185.1 -97.25" stroke="#000000" stroke-width="1.5" fill="none" stroke-dasharray="8 9"></path></g><g transform="translate(858.0275268554688 351.57334899902344) rotate(0 92.55093383789062 -48.62535095214844)"><path d="M164.92 -75.06 C172.59 -83.49, 180.26 -91.92, 185.1 -97.25" stroke="#000000" stroke-width="1.5" fill="none"></path></g><g transform="translate(858.0275268554688 351.57334899902344) rotate(0 92.55093383789062 -48.62535095214844)"><path d="M155.37 -93.22 C166.67 -94.75, 177.97 -96.28, 185.1 -97.25" stroke="#000000" stroke-width="1.5" fill="none"></path></g></g><g stroke-linecap="round"><g transform="translate(855.0703735351562 364.7716522216797) rotate(0 96.55426025390625 -3.714111328125)"><path d="M0 0 C32.18 -1.24, 160.92 -6.19, 193.11 -7.43" stroke="#000000" stroke-width="1.5" fill="none" stroke-dasharray="8 9"></path></g><g transform="translate(855.0703735351562 364.7716522216797) rotate(0 96.55426025390625 -3.714111328125)"><path d="M165.33 3.91 C173.17 0.71, 181 -2.49, 193.11 -7.43" stroke="#000000" stroke-width="1.5" fill="none"></path></g><g transform="translate(855.0703735351562 364.7716522216797) rotate(0 96.55426025390625 -3.714111328125)"><path d="M164.54 -16.6 C172.6 -14.01, 180.66 -11.42, 193.11 -7.43" stroke="#000000" stroke-width="1.5" fill="none"></path></g></g><g stroke-linecap="round"><g transform="translate(850.5791625976562 378.58641052246094) rotate(0 97.642333984375 33.122711181640625)"><path d="M0 0 C32.55 11.04, 162.74 55.2, 195.28 66.25" stroke="#000000" stroke-width="1.5" fill="none" stroke-dasharray="8 9"></path></g><g transform="translate(850.5791625976562 378.58641052246094) rotate(0 97.642333984375 33.122711181640625)"><path d="M165.29 66.91 C174.9 66.69, 184.52 66.48, 195.28 66.25" stroke="#000000" stroke-width="1.5" fill="none"></path></g><g transform="translate(850.5791625976562 378.58641052246094) rotate(0 97.642333984375 33.122711181640625)"><path d="M171.88 47.47 C179.38 53.49, 186.88 59.51, 195.28 66.25" stroke="#000000" stroke-width="1.5" fill="none"></path></g></g><g stroke-linecap="round"><g transform="translate(847.9452514648438 389.72666931152344) rotate(0 104.4459228515625 77.38894653320312)"><path d="M0 0 C34.82 25.8, 174.08 128.98, 208.89 154.78" stroke="#000000" stroke-width="1.5" fill="none" stroke-dasharray="8 9"></path></g><g transform="translate(847.9452514648438 389.72666931152344) rotate(0 104.4459228515625 77.38894653320312)"><path d="M180.13 146.24 C190.23 149.24, 200.32 152.23, 208.89 154.78" stroke="#000000" stroke-width="1.5" fill="none"></path></g><g transform="translate(847.9452514648438 389.72666931152344) rotate(0 104.4459228515625 77.38894653320312)"><path d="M192.35 129.75 C198.16 138.54, 203.96 147.32, 208.89 154.78" stroke="#000000" stroke-width="1.5" fill="none"></path></g></g><g stroke-linecap="round"><g transform="translate(817.4481201171875 386.2914581298828) rotate(0 122.00323486328125 131.72093200683594)"><path d="M0 0 C40.67 43.91, 203.34 219.53, 244.01 263.44" stroke="#000000" stroke-width="1.5" fill="none" stroke-dasharray="8 9"></path></g><g transform="translate(817.4481201171875 386.2914581298828) rotate(0 122.00323486328125 131.72093200683594)"><path d="M217.32 249.73 C223.43 252.87, 229.53 256.01, 244.01 263.44" stroke="#000000" stroke-width="1.5" fill="none"></path></g><g transform="translate(817.4481201171875 386.2914581298828) rotate(0 122.00323486328125 131.72093200683594)"><path d="M232.38 235.79 C235.04 242.11, 237.7 248.44, 244.01 263.44" stroke="#000000" stroke-width="1.5" fill="none"></path></g></g><g stroke-linecap="round" transform="translate(606.7361755371094 1123.709701538086) rotate(0 129.79983520507812 35.94366455078125)"><path d="M17.97 0 M17.97 0 C74.98 1.96, 136.28 0.58, 241.63 0 M17.97 0 C98.39 1.15, 179.98 0.21, 241.63 0 M241.63 0 C254.99 -1.62, 258.9 4.12, 259.6 17.97 M241.63 0 C252.73 -1.5, 259.54 7.54, 259.6 17.97 M259.6 17.97 C260.66 29.91, 259.32 45.34, 259.6 53.92 M259.6 17.97 C260.41 27.04, 260.25 34.03, 259.6 53.92 M259.6 53.92 C259.22 67.54, 251.83 73.58, 241.63 71.89 M259.6 53.92 C258.25 64.32, 251.94 71.55, 241.63 71.89 M241.63 71.89 C169.15 70.49, 94.59 70.54, 17.97 71.89 M241.63 71.89 C177.66 71.71, 111.76 70.69, 17.97 71.89 M17.97 71.89 C6.38 70.65, -1.19 66.36, 0 53.92 M17.97 71.89 C5.7 73.44, 1.85 64.48, 0 53.92 M0 53.92 C-0.5 42.8, 0.28 33.09, 0 17.97 M0 53.92 C0.58 44.13, 0.64 33.07, 0 17.97 M0 17.97 C0.13 4.51, 4.91 1.37, 17.97 0 M0 17.97 C-0.47 4.47, 4.58 -0.15, 17.97 0" stroke="#000000" stroke-width="1" fill="none"></path></g><g transform="translate(671.5990142822266 1147.4044036865234) rotate(0 64.5 12.5)"><text x="64.5" y="18" font-family="Virgil, Segoe UI Emoji" font-size="20px" fill="#000000" text-anchor="middle" style="white-space: pre;" direction="ltr">Microservices</text></g><g stroke-linecap="round"><g transform="translate(727.0441284179688 961.8354339599609) rotate(0 0.0313720703125 79.32768249511719)"><path d="M0 0 C0.01 26.44, 0.05 132.21, 0.06 158.66 M0 0 C0.01 26.44, 0.05 132.21, 0.06 158.66" stroke="#000000" stroke-width="1" fill="none"></path></g><g transform="translate(727.0441284179688 961.8354339599609) rotate(0 0.0313720703125 79.32768249511719)"><path d="M-10.21 130.47 C-7.68 137.4, -5.15 144.34, 0.06 158.66 M-10.21 130.47 C-6.63 140.28, -3.06 150.1, 0.06 158.66" stroke="#000000" stroke-width="1" fill="none"></path></g><g transform="translate(727.0441284179688 961.8354339599609) rotate(0 0.0313720703125 79.32768249511719)"><path d="M10.31 130.46 C7.79 137.4, 5.27 144.34, 0.06 158.66 M10.31 130.46 C6.74 140.28, 3.18 150.09, 0.06 158.66" stroke="#000000" stroke-width="1" fill="none"></path></g></g><g stroke-linecap="round" transform="translate(1081.4441528320312 804.3841323852539) rotate(0 129.79983520507812 35.94366455078125)"><path d="M17.97 0 M17.97 0 C86.81 -2.03, 154 -2.51, 241.63 0 M17.97 0 C77.42 0.93, 138.42 1.52, 241.63 0 M241.63 0 C253.06 0.46, 257.69 6.08, 259.6 17.97 M241.63 0 C254.3 2.22, 257.53 6.86, 259.6 17.97 M259.6 17.97 C261.1 27.28, 261.01 38.85, 259.6 53.92 M259.6 17.97 C259.01 30.94, 260.15 43.98, 259.6 53.92 M259.6 53.92 C260.02 67.74, 253.92 70.16, 241.63 71.89 M259.6 53.92 C258.39 68.18, 252.96 70.81, 241.63 71.89 M241.63 71.89 C191.33 71.91, 143.09 71.98, 17.97 71.89 M241.63 71.89 C194.17 70.29, 147.13 71.04, 17.97 71.89 M17.97 71.89 C7.97 73.82, -1.43 65.8, 0 53.92 M17.97 71.89 C5.62 70.83, 0.35 67.94, 0 53.92 M0 53.92 C-1.58 43.48, -0.93 34.14, 0 17.97 M0 53.92 C0.46 42.89, -0.38 32.85, 0 17.97 M0 17.97 C-1.54 4.1, 6.23 1.23, 17.97 0 M0 17.97 C2.14 6.72, 6.35 2.08, 17.97 0" stroke="#e67700" stroke-width="1" fill="none"></path></g><g transform="translate(1177.3069915771484 828.0788345336914) rotate(0 33.5 12.5)"><text x="33.5" y="18" font-family="Virgil, Segoe UI Emoji" font-size="20px" fill="#e67700" text-anchor="middle" style="white-space: pre;" direction="ltr">Circles</text></g><g stroke-linecap="round" transform="translate(1080.3125305175781 914.0973892211914) rotate(0 129.79983520507812 35.94366455078125)"><path d="M17.97 0 M17.97 0 C105.03 -0.47, 194.9 -0.57, 241.63 0 M17.97 0 C77.04 0.3, 135.65 -0.32, 241.63 0 M241.63 0 C251.7 0.09, 260.2 7.92, 259.6 17.97 M241.63 0 C251.54 0.87, 258.99 5.41, 259.6 17.97 M259.6 17.97 C261.39 28, 260.97 35.35, 259.6 53.92 M259.6 17.97 C259.99 29.43, 259.61 40.71, 259.6 53.92 M259.6 53.92 C259.91 64.17, 252.56 73.87, 241.63 71.89 M259.6 53.92 C258.95 64.82, 251.77 70.17, 241.63 71.89 M241.63 71.89 C167.91 70.83, 93 72.37, 17.97 71.89 M241.63 71.89 C185.28 70.46, 129.73 71.22, 17.97 71.89 M17.97 71.89 C4.56 71.79, -0.32 64.98, 0 53.92 M17.97 71.89 C6.34 73.93, -0.89 63.63, 0 53.92 M0 53.92 C-0.94 43.08, 0.2 33.16, 0 17.97 M0 53.92 C-0.68 45.17, -0.87 35.55, 0 17.97 M0 17.97 C0.24 7.22, 7.85 0.63, 17.97 0 M0 17.97 C0.36 8.07, 6.62 0.88, 17.97 0" stroke="#e67700" stroke-width="1" fill="none"></path></g><g transform="translate(1162.6753692626953 937.7920913696289) rotate(0 47 12.5)"><text x="47" y="18" font-family="Virgil, Segoe UI Emoji" font-size="20px" fill="#e67700" text-anchor="middle" style="white-space: pre;" direction="ltr">Comments</text></g><g stroke-linecap="round" transform="translate(1086.1869506835938 1018.4187850952148) rotate(0 129.79983520507812 35.94366455078125)"><path d="M17.97 0 M17.97 0 C82.38 -0.02, 147.23 -0.71, 241.63 0 M17.97 0 C90.85 -1.63, 163.37 -1.79, 241.63 0 M241.63 0 C254.21 1.93, 257.8 6.75, 259.6 17.97 M241.63 0 C253 -0.58, 258.34 7.82, 259.6 17.97 M259.6 17.97 C260.95 27.58, 259.94 36.57, 259.6 53.92 M259.6 17.97 C260.02 30.55, 259.97 40.42, 259.6 53.92 M259.6 53.92 C258.55 67.88, 253.05 70.95, 241.63 71.89 M259.6 53.92 C257.76 64.18, 254.27 70.39, 241.63 71.89 M241.63 71.89 C179.89 72.45, 120.38 70.98, 17.97 71.89 M241.63 71.89 C192.82 72.88, 141.69 72, 17.97 71.89 M17.97 71.89 C5.67 70.97, 0.31 67.67, 0 53.92 M17.97 71.89 C5.1 69.62, -0.61 63.67, 0 53.92 M0 53.92 C0.08 43.92, -0.92 36.65, 0 17.97 M0 53.92 C-0.56 44.01, 0.33 36.61, 0 17.97 M0 17.97 C1.86 6.62, 6.3 1.81, 17.97 0 M0 17.97 C0.63 6.87, 8.26 -1.72, 17.97 0" stroke="#e67700" stroke-width="1" fill="none"></path></g><g transform="translate(1180.049789428711 1042.1134872436523) rotate(0 35.5 12.5)"><text x="35.5" y="18" font-family="Virgil, Segoe UI Emoji" font-size="20px" fill="#e67700" text-anchor="middle" style="white-space: pre;" direction="ltr">Gallery</text></g><g stroke-linecap="round" transform="translate(1088.1879272460938 1117.0187911987305) rotate(0 129.79983520507812 35.94366455078125)"><path d="M17.97 0 M17.97 0 C75.96 -0.6, 135.66 1.07, 241.63 0 M17.97 0 C105.55 -0.4, 195.02 0.39, 241.63 0 M241.63 0 C251.81 0.76, 259.07 5.48, 259.6 17.97 M241.63 0 C252.35 1.83, 259 7.72, 259.6 17.97 M259.6 17.97 C259.86 29.86, 260.28 45.11, 259.6 53.92 M259.6 17.97 C259.83 29.87, 259.15 44.48, 259.6 53.92 M259.6 53.92 C259.04 64.96, 252.01 70.4, 241.63 71.89 M259.6 53.92 C260.26 64.4, 252.9 71.66, 241.63 71.89 M241.63 71.89 C179.72 72.7, 118.11 73.14, 17.97 71.89 M241.63 71.89 C172.08 73.71, 103.62 73.35, 17.97 71.89 M17.97 71.89 C6.3 73.66, -0.78 63.93, 0 53.92 M17.97 71.89 C5.38 69.66, -1.21 64.42, 0 53.92 M0 53.92 C-1.13 45.47, -0.99 34.81, 0 17.97 M0 53.92 C0.4 43.88, 1.21 32.94, 0 17.97 M0 17.97 C0.31 7.8, 6.54 0.76, 17.97 0 M0 17.97 C2.26 4.27, 4.9 1.69, 17.97 0" stroke="#e67700" stroke-width="1" fill="none"></path></g><g transform="translate(1189.550765991211 1140.713493347168) rotate(0 28 12.5)"><text x="28" y="18" font-family="Virgil, Segoe UI Emoji" font-size="20px" fill="#e67700" text-anchor="middle" style="white-space: pre;" direction="ltr">Posts</text></g><g stroke-linecap="round" transform="translate(1090.9591979980469 1213.6647262573242) rotate(0 129.79983520507812 35.94366455078125)"><path d="M17.97 0 M17.97 0 C75.74 1.84, 134.23 1.14, 241.63 0 M17.97 0 C90.48 0.74, 161.7 0.24, 241.63 0 M241.63 0 C253.08 -0.51, 258.5 7.58, 259.6 17.97 M241.63 0 C253.01 1.73, 261 7.24, 259.6 17.97 M259.6 17.97 C260.1 29.51, 260.71 39.11, 259.6 53.92 M259.6 17.97 C259.13 33.06, 259.37 45.7, 259.6 53.92 M259.6 53.92 C258 64.41, 254.19 70.59, 241.63 71.89 M259.6 53.92 C258.89 65.67, 252.99 69.85, 241.63 71.89 M241.63 71.89 C159.21 71.49, 79.62 73.15, 17.97 71.89 M241.63 71.89 C152.74 71.4, 64.27 72.56, 17.97 71.89 M17.97 71.89 C5.21 69.92, -0.53 63.96, 0 53.92 M17.97 71.89 C4.78 70.41, -1.16 65.72, 0 53.92 M0 53.92 C-0.81 43.95, 0.13 34.75, 0 17.97 M0 53.92 C0.89 46.85, 0.11 40.05, 0 17.97 M0 17.97 C0.55 6.75, 7.96 -1.49, 17.97 0 M0 17.97 C-1.1 7.68, 5.82 -0.06, 17.97 0" stroke="#e67700" stroke-width="1" fill="none"></path></g><g transform="translate(1149.822036743164 1237.3594284057617) rotate(0 70.5 12.5)"><text x="70.5" y="18" font-family="Virgil, Segoe UI Emoji" font-size="20px" fill="#e67700" text-anchor="middle" style="white-space: pre;" direction="ltr">User Relations</text></g><g stroke-linecap="round" transform="translate(1092.4169311523438 1314.551628112793) rotate(0 129.79983520507812 35.94366455078125)"><path d="M17.97 0 M17.97 0 C67.99 -0.72, 115.13 -1.9, 241.63 0 M17.97 0 C85.35 -1.53, 154.04 -2.07, 241.63 0 M241.63 0 C252.51 1.59, 259.08 7.49, 259.6 17.97 M241.63 0 C255.01 1.25, 259.33 6.07, 259.6 17.97 M259.6 17.97 C260.79 27.21, 261.53 35.91, 259.6 53.92 M259.6 17.97 C259.13 25.18, 258.61 32.59, 259.6 53.92 M259.6 53.92 C260.18 64.6, 252.99 71.69, 241.63 71.89 M259.6 53.92 C258.98 63.86, 255.05 70.78, 241.63 71.89 M241.63 71.89 C179.8 73.65, 119.35 70.71, 17.97 71.89 M241.63 71.89 C175.73 71.77, 109.23 70.15, 17.97 71.89 M17.97 71.89 C5.46 69.95, -1.05 64.61, 0 53.92 M17.97 71.89 C4.83 71.72, -1.26 64.57, 0 53.92 M0 53.92 C0.11 40.64, -1.71 30.69, 0 17.97 M0 53.92 C-0.18 41.83, -0.06 28.33, 0 17.97 M0 17.97 C1.97 4.5, 5.04 1.47, 17.97 0 M0 17.97 C-0.17 5.93, 4.39 0.61, 17.97 0" stroke="#e67700" stroke-width="1" fill="none"></path></g><g transform="translate(1201.279769897461 1338.2463302612305) rotate(0 20.5 12.5)"><text x="20.5" y="18" font-family="Virgil, Segoe UI Emoji" font-size="20px" fill="#e67700" text-anchor="middle" style="white-space: pre;" direction="ltr">Vang</text></g><g stroke-linecap="round" transform="translate(1098.3125610351562 1409.6692428588867) rotate(0 129.79983520507812 35.94366455078125)"><path d="M17.97 0 M17.97 0 C88.39 -1.12, 158.1 1.04, 241.63 0 M17.97 0 C106.39 -0.95, 194.79 -0.04, 241.63 0 M241.63 0 C253.09 1.5, 260.82 7.07, 259.6 17.97 M241.63 0 C253.34 0.08, 258.34 6.55, 259.6 17.97 M259.6 17.97 C261.64 31.19, 258.07 42.74, 259.6 53.92 M259.6 17.97 C258.7 31.58, 259.79 46.02, 259.6 53.92 M259.6 53.92 C258.98 65.7, 253.07 70.11, 241.63 71.89 M259.6 53.92 C261.04 64.79, 253.08 70.09, 241.63 71.89 M241.63 71.89 C175.6 72.57, 106.15 73.52, 17.97 71.89 M241.63 71.89 C184.47 72.75, 127.76 72.76, 17.97 71.89 M17.97 71.89 C4.94 70.6, -1.01 65.75, 0 53.92 M17.97 71.89 C4.73 70.56, 0.61 64.73, 0 53.92 M0 53.92 C-1.88 45.46, 1.24 38.38, 0 17.97 M0 53.92 C0.22 42.37, 0.93 29.32, 0 17.97 M0 17.97 C-0.95 7.46, 5.84 -0.05, 17.97 0 M0 17.97 C-1.6 6.6, 4.04 0.61, 17.97 0" stroke="#e67700" stroke-width="1" fill="none"></path></g><g transform="translate(1201.1753997802734 1433.3639450073242) rotate(0 26.5 12.5)"><text x="26.5" y="18" font-family="Virgil, Segoe UI Emoji" font-size="20px" fill="#e67700" text-anchor="middle" style="white-space: pre;" direction="ltr">Votes</text></g><g stroke-linecap="round"><g transform="translate(875.0067749023438 1124.2632293701172) rotate(0 98.03733825683594 -143.1561279296875)"><path d="M0 0 C32.68 -47.72, 163.4 -238.59, 196.07 -286.31" stroke="#000000" stroke-width="1.5" fill="none" stroke-dasharray="8 9"></path></g><g transform="translate(875.0067749023438 1124.2632293701172) rotate(0 98.03733825683594 -143.1561279296875)"><path d="M188.61 -257.26 C190.84 -265.92, 193.06 -274.58, 196.07 -286.31" stroke="#000000" stroke-width="1.5" fill="none"></path></g><g transform="translate(875.0067749023438 1124.2632293701172) rotate(0 98.03733825683594 -143.1561279296875)"><path d="M171.68 -268.85 C178.95 -274.05, 186.22 -279.26, 196.07 -286.31" stroke="#000000" stroke-width="1.5" fill="none"></path></g></g><g stroke-linecap="round"><g transform="translate(873.9397277832031 1152.0484161376953) rotate(0 102.71682739257812 -96.73149108886719)"><path d="M0 0 C34.24 -32.24, 171.19 -161.22, 205.43 -193.46" stroke="#000000" stroke-width="1.5" fill="none" stroke-dasharray="8 9"></path></g><g transform="translate(873.9397277832031 1152.0484161376953) rotate(0 102.71682739257812 -96.73149108886719)"><path d="M191.95 -166.67 C195.65 -174.03, 199.35 -181.39, 205.43 -193.46" stroke="#000000" stroke-width="1.5" fill="none"></path></g><g transform="translate(873.9397277832031 1152.0484161376953) rotate(0 102.71682739257812 -96.73149108886719)"><path d="M177.88 -181.61 C185.44 -184.86, 193.01 -188.12, 205.43 -193.46" stroke="#000000" stroke-width="1.5" fill="none"></path></g></g><g stroke-linecap="round"><g transform="translate(875.3380432128906 1169.5417022705078) rotate(0 102.31231689453125 -53.00880432128906)"><path d="M0 0 C34.1 -17.67, 170.52 -88.35, 204.62 -106.02" stroke="#000000" stroke-width="1.5" fill="none" stroke-dasharray="8 9"></path></g><g transform="translate(875.3380432128906 1169.5417022705078) rotate(0 102.31231689453125 -53.00880432128906)"><path d="M184.31 -83.94 C190.65 -90.82, 196.98 -97.71, 204.62 -106.02" stroke="#000000" stroke-width="1.5" fill="none"></path></g><g transform="translate(875.3380432128906 1169.5417022705078) rotate(0 102.31231689453125 -53.00880432128906)"><path d="M174.87 -102.16 C184.15 -103.36, 193.43 -104.57, 204.62 -106.02" stroke="#000000" stroke-width="1.5" fill="none"></path></g></g><g stroke-linecap="round"><g transform="translate(867.5943603515625 1195.7332611083984) rotate(0 105.89614868164062 -19.729690551757812)"><path d="M0 0 C35.3 -6.58, 176.49 -32.88, 211.79 -39.46" stroke="#000000" stroke-width="1.5" fill="none" stroke-dasharray="8 9"></path></g><g transform="translate(867.5943603515625 1195.7332611083984) rotate(0 105.89614868164062 -19.729690551757812)"><path d="M185.96 -24.21 C191.2 -27.3, 196.44 -30.4, 211.79 -39.46" stroke="#000000" stroke-width="1.5" fill="none"></path></g><g transform="translate(867.5943603515625 1195.7332611083984) rotate(0 105.89614868164062 -19.729690551757812)"><path d="M182.2 -44.38 C188.2 -43.38, 194.21 -42.39, 211.79 -39.46" stroke="#000000" stroke-width="1.5" fill="none"></path></g></g><g stroke-linecap="round"><g transform="translate(872.5797119140625 1196.638412475586) rotate(0 104.85366821289062 24.92218017578125)"><path d="M0 0 C34.95 8.31, 174.76 41.54, 209.71 49.84" stroke="#000000" stroke-width="1.5" fill="none" stroke-dasharray="8 9"></path></g><g transform="translate(872.5797119140625 1196.638412475586) rotate(0 104.85366821289062 24.92218017578125)"><path d="M179.91 53.31 C187.61 52.41, 195.3 51.52, 209.71 49.84" stroke="#000000" stroke-width="1.5" fill="none"></path></g><g transform="translate(872.5797119140625 1196.638412475586) rotate(0 104.85366821289062 24.92218017578125)"><path d="M184.65 33.34 C191.13 37.61, 197.6 41.87, 209.71 49.84" stroke="#000000" stroke-width="1.5" fill="none"></path></g></g><g stroke-linecap="round"><g transform="translate(861.4252319335938 1200.175552368164) rotate(0 109.46990966796875 70.78994750976562)"><path d="M0 0 C36.49 23.6, 182.45 117.98, 218.94 141.58" stroke="#000000" stroke-width="1.5" fill="none" stroke-dasharray="8 9"></path></g><g transform="translate(861.4252319335938 1200.175552368164) rotate(0 109.46990966796875 70.78994750976562)"><path d="M189.7 134.89 C199.49 137.13, 209.28 139.37, 218.94 141.58" stroke="#000000" stroke-width="1.5" fill="none"></path></g><g transform="translate(861.4252319335938 1200.175552368164) rotate(0 109.46990966796875 70.78994750976562)"><path d="M200.84 117.66 C206.9 125.67, 212.96 133.67, 218.94 141.58" stroke="#000000" stroke-width="1.5" fill="none"></path></g></g><g stroke-linecap="round"><g transform="translate(864.9451293945312 1201.7259979248047) rotate(0 109.6673583984375 112.92327880859375)"><path d="M0 0 C36.56 37.64, 182.78 188.21, 219.33 225.85" stroke="#000000" stroke-width="1.5" fill="none" stroke-dasharray="8 9"></path></g><g transform="translate(864.9451293945312 1201.7259979248047) rotate(0 109.6673583984375 112.92327880859375)"><path d="M192.33 212.77 C202.75 217.81, 213.16 222.86, 219.33 225.85" stroke="#000000" stroke-width="1.5" fill="none"></path></g><g transform="translate(864.9451293945312 1201.7259979248047) rotate(0 109.6673583984375 112.92327880859375)"><path d="M207.06 198.47 C211.79 209.03, 216.53 219.59, 219.33 225.85" stroke="#000000" stroke-width="1.5" fill="none"></path></g></g><g transform="translate(1327.674112955729 28.582015991210994) rotate(0 167 10)"><text x="0" y="14" font-family="Virgil, Segoe UI Emoji" font-size="16px" fill="#343a40" text-anchor="start" style="white-space: pre;" direction="ltr">Interaction between backend and frontend</text></g><g transform="translate(1325.770039876302 142.32246398925764) rotate(0 111.5 10)"><text x="0" y="14" font-family="Virgil, Segoe UI Emoji" font-size="16px" fill="#343a40" text-anchor="start" style="white-space: pre;" direction="ltr">User authentication services</text></g><g transform="translate(1335.1815999348953 248.61910502115882) rotate(0 83.5 10)"><text x="0" y="14" font-family="Virgil, Segoe UI Emoji" font-size="16px" fill="#343a40" text-anchor="start" style="white-space: pre;" direction="ltr">Admin portal services</text></g><g transform="translate(1335.8914388020837 340.84251403808577) rotate(0 100 10)"><text x="0" y="14" font-family="Virgil, Segoe UI Emoji" font-size="16px" fill="#343a40" text-anchor="start" style="white-space: pre;" direction="ltr">User notification services</text></g><g transform="translate(1341.9176635742185 441.88916524251295) rotate(0 81.5 10)"><text x="0" y="14" font-family="Virgil, Segoe UI Emoji" font-size="16px" fill="#343a40" text-anchor="start" style="white-space: pre;" direction="ltr">User profile services</text></g><g transform="translate(1350.7077026367188 545.9168752034504) rotate(0 62.5 10)"><text x="0" y="14" font-family="Virgil, Segoe UI Emoji" font-size="16px" fill="#343a40" text-anchor="start" style="white-space: pre;" direction="ltr">Setting services</text></g><g transform="translate(1353.5226033528643 640.7595570882161) rotate(0 67 10)"><text x="0" y="14" font-family="Virgil, Segoe UI Emoji" font-size="16px" fill="#343a40" text-anchor="start" style="white-space: pre;" direction="ltr">Storage services</text></g><g transform="translate(1363.0258992513018 828.2658131917318) rotate(0 81.5 10)"><text x="0" y="14" font-family="Virgil, Segoe UI Emoji" font-size="16px" fill="#343a40" text-anchor="start" style="white-space: pre;" direction="ltr">User groups services</text></g><g transform="translate(1364.5147705078125 944.3504587809244) rotate(0 93 10)"><text x="0" y="14" font-family="Virgil, Segoe UI Emoji" font-size="16px" fill="#343a40" text-anchor="start" style="white-space: pre;" direction="ltr">Post comments services</text></g><g transform="translate(1366.5792236328125 1042.7038828531904) rotate(0 97.5 10)"><text x="0" y="14" font-family="Virgil, Segoe UI Emoji" font-size="16px" fill="#343a40" text-anchor="start" style="white-space: pre;" direction="ltr">Video and image services</text></g><g transform="translate(1367.4607950846353 1140.6040700276694) rotate(0 97.5 10)"><text x="0" y="14" font-family="Virgil, Segoe UI Emoji" font-size="16px" fill="#343a40" text-anchor="start" style="white-space: pre;" direction="ltr">Video and image services</text></g><g transform="translate(1372.2956949869795 1237.3462677001953) rotate(0 60.5 10)"><text x="0" y="14" font-family="Virgil, Segoe UI Emoji" font-size="16px" fill="#343a40" text-anchor="start" style="white-space: pre;" direction="ltr">Connect users </text></g><g transform="translate(1379.197835286458 1335.7725270589194) rotate(0 55 10)"><text x="0" y="14" font-family="Virgil, Segoe UI Emoji" font-size="16px" fill="#343a40" text-anchor="start" style="white-space: pre;" direction="ltr">Chat services</text></g><g transform="translate(1382.2527669270835 1432.180150349935) rotate(0 52 10)"><text x="0" y="14" font-family="Virgil, Segoe UI Emoji" font-size="16px" fill="#343a40" text-anchor="start" style="white-space: pre;" direction="ltr">Vote services</text></g></svg>