<svg version="1.1" xmlns="http://www.w3.org/2000/svg" viewBox="0 0 820.2936706542969 507.08299255371094" width="1640.5873413085938" height="1014.1659851074219">
  <!-- svg-source:excalidraw -->
  
  <defs>
    <style>
      @font-face {
        font-family: "Virgil";
        src: url("https://excalidraw.com/Virgil.woff2");
      }
      @font-face {
        font-family: "Cascadia";
        src: url("https://excalidraw.com/Cascadia.woff2");
      }
    </style>
  </defs>
  <g stroke-linecap="round" transform="translate(10 380.52630615234375) rotate(0 195.35108947753906 30.217681884765625)"><path d="M15.11 0 M15.11 0 C116.56 2.45, 216.3 0.98, 375.59 0 M15.11 0 C145.98 -2.58, 277.96 -2.03, 375.59 0 M375.59 0 C385.78 0.47, 390.55 3.04, 390.7 15.11 M375.59 0 C384.25 2.2, 391.3 6.63, 390.7 15.11 M390.7 15.11 C390.81 24.46, 392.48 39.41, 390.7 45.33 M390.7 15.11 C390.31 22.33, 390.16 31.11, 390.7 45.33 M390.7 45.33 C390.55 57.14, 384.85 61.75, 375.59 60.44 M390.7 45.33 C392.02 54.03, 386.68 58.45, 375.59 60.44 M375.59 60.44 C284.78 58.73, 196.09 57.7, 15.11 60.44 M375.59 60.44 C235.01 61.02, 93.71 60.86, 15.11 60.44 M15.11 60.44 C3.41 59.84, 0.43 56.1, 0 45.33 M15.11 60.44 C6.73 59.65, -1.09 53.39, 0 45.33 M0 45.33 C1.05 37.28, -1.01 31.4, 0 15.11 M0 45.33 C-0.33 36.24, 0.03 25.28, 0 15.11 M0 15.11 C0.63 6.23, 3.1 -0.08, 15.11 0 M0 15.11 C-2.22 7.26, 6.81 -0.88, 15.11 0" stroke="#3068de" stroke-width="1" fill="none"></path></g><g transform="translate(156.68399047851562 397.67138671875) rotate(0 59 12.5)"><text x="0" y="18" font-family="Virgil, Segoe UI Emoji" font-size="20px" fill="#3068de" text-anchor="start" style="white-space: pre;" direction="ltr">Kubernetes </text></g><g stroke-linecap="round" transform="translate(419.59149169921875 381.2329406738281) rotate(0 195.35108947753906 30.217681884765625)"><path d="M15.11 0 M15.11 0 C146.28 1.42, 279.94 1.14, 375.59 0 M15.11 0 C99.61 -0.71, 185.87 -1.41, 375.59 0 M375.59 0 C387.47 -0.14, 389.59 6.82, 390.7 15.11 M375.59 0 C386.09 -0.26, 391.99 5.59, 390.7 15.11 M390.7 15.11 C390.44 27.21, 391.55 37.39, 390.7 45.33 M390.7 15.11 C391.12 25.83, 390.82 35.22, 390.7 45.33 M390.7 45.33 C391.98 54.59, 385.65 60.75, 375.59 60.44 M390.7 45.33 C392.07 53.8, 383.73 62.19, 375.59 60.44 M375.59 60.44 C241.38 61.31, 108.74 59.32, 15.11 60.44 M375.59 60.44 C260.34 58.49, 144.37 58.61, 15.11 60.44 M15.11 60.44 C6.13 61.83, 0.17 54.56, 0 45.33 M15.11 60.44 C5.56 58.59, -1.35 57.01, 0 45.33 M0 45.33 C-0.91 31.93, -0.48 24.17, 0 15.11 M0 45.33 C0.04 38.71, -1.18 31.71, 0 15.11 M0 15.11 C-1.03 6.9, 6.32 0.2, 15.11 0 M0 15.11 C0.48 5.22, 4.64 -1.17, 15.11 0" stroke="#2491e6" stroke-width="1" fill="none"></path></g><g transform="translate(575.9379577636719 398.4361572265625) rotate(0 36 12.5)"><text x="0" y="18" font-family="Virgil, Segoe UI Emoji" font-size="20px" fill="#2491e6" text-anchor="start" style="white-space: pre;" direction="ltr">Docker</text></g><g stroke-linecap="round" transform="translate(416.2863311767578 307.6683044433594) rotate(0 195.35108947753906 30.217681884765625)"><path d="M15.11 0 M15.11 0 C151.71 -0.36, 290.34 -2.27, 375.59 0 M15.11 0 C136.43 -2.34, 258.35 -1.97, 375.59 0 M375.59 0 C384.23 -0.52, 391.79 3.09, 390.7 15.11 M375.59 0 C385.36 -1.8, 389.36 6.47, 390.7 15.11 M390.7 15.11 C390.89 25.4, 391.59 37.76, 390.7 45.33 M390.7 15.11 C390.37 24.09, 389.82 33.01, 390.7 45.33 M390.7 45.33 C391.17 57.08, 385.5 60.45, 375.59 60.44 M390.7 45.33 C389.16 56.75, 385.69 62.04, 375.59 60.44 M375.59 60.44 C298.2 59.17, 222.75 60.16, 15.11 60.44 M375.59 60.44 C243.9 60.17, 112.07 60.79, 15.11 60.44 M15.11 60.44 C6.49 60.59, -1.6 54.81, 0 45.33 M15.11 60.44 C3.68 58.87, -0.63 57.41, 0 45.33 M0 45.33 C-1.18 38.97, -0.26 29.68, 0 15.11 M0 45.33 C-0.84 33.88, 0.13 23.1, 0 15.11 M0 15.11 C-1.37 5.83, 5.76 0.93, 15.11 0 M0 15.11 C1.45 6.17, 4.56 -1.59, 15.11 0" stroke="#2491e6" stroke-width="1" fill="none"></path></g><g transform="translate(530.2794036865234 325.1245422363281) rotate(0 82.5 12.5)"><text x="0" y="18" font-family="Virgil, Segoe UI Emoji" font-size="20px" fill="#2491e6" text-anchor="start" style="white-space: pre;" direction="ltr">Docker Compose</text></g><g stroke-linecap="round" transform="translate(11.860549926757812 307.0426025390625) rotate(0 195.35108947753906 30.217681884765625)"><path d="M15.11 0 M15.11 0 C131.09 -0.61, 245.49 -0.96, 375.59 0 M15.11 0 C150.62 0.49, 286.94 0.29, 375.59 0 M375.59 0 C387.24 1.58, 389.85 4.37, 390.7 15.11 M375.59 0 C386.37 0.16, 392.31 2.93, 390.7 15.11 M390.7 15.11 C390.87 24.01, 392.14 34.53, 390.7 45.33 M390.7 15.11 C391.18 25.43, 390.13 37.7, 390.7 45.33 M390.7 45.33 C389.6 54.21, 387.65 61.24, 375.59 60.44 M390.7 45.33 C391.94 54.13, 385.78 60.33, 375.59 60.44 M375.59 60.44 C296.59 62.07, 217.41 62.45, 15.11 60.44 M375.59 60.44 C237.08 62.88, 97.59 62.86, 15.11 60.44 M15.11 60.44 C3.58 61.61, -1.49 54.7, 0 45.33 M15.11 60.44 C5.43 58.76, 0.61 54.6, 0 45.33 M0 45.33 C-1.38 35.79, 1.37 23.78, 0 15.11 M0 45.33 C-1.09 36.21, 0.6 25.68, 0 15.11 M0 15.11 C-0.04 5.63, 5.87 0, 15.11 0 M0 15.11 C2.16 7.11, 2.95 -1.19, 15.11 0" stroke="#11a7dd" stroke-width="1" fill="none"></path></g><g transform="translate(161.1487274169922 323.58453369140625) rotate(0 47 12.5)"><text x="0" y="18" font-family="Virgil, Segoe UI Emoji" font-size="20px" fill="#11a7dd" text-anchor="start" style="white-space: pre;" direction="ltr">OpenFaaS</text></g><g stroke-linecap="round" transform="translate(10.374465942382812 234.65383911132812) rotate(0 398.14903259277344 30.217681884765625)"><path d="M15.11 0 M15.11 0 C274.83 -1.48, 535.28 -0.06, 781.19 0 M15.11 0 C262.62 2.89, 510.22 3.2, 781.19 0 M781.19 0 C792.89 -1.01, 795.05 4.63, 796.3 15.11 M781.19 0 C793.28 -0.61, 798.01 6.13, 796.3 15.11 M796.3 15.11 C795.62 23.61, 795.36 26.5, 796.3 45.33 M796.3 15.11 C795.8 26.86, 796.27 37.09, 796.3 45.33 M796.3 45.33 C796.08 57.19, 789.57 62.04, 781.19 60.44 M796.3 45.33 C798.3 56.96, 792.21 60, 781.19 60.44 M781.19 60.44 C625.32 61.35, 468.52 61.56, 15.11 60.44 M781.19 60.44 C593.66 60.52, 405.76 60.61, 15.11 60.44 M15.11 60.44 C6.45 58.67, -0.4 54.5, 0 45.33 M15.11 60.44 C4.17 62.45, 1.29 55.3, 0 45.33 M0 45.33 C0.53 33.29, -0.79 20.6, 0 15.11 M0 45.33 C-0.75 35.2, 0.75 25.57, 0 15.11 M0 15.11 C1.35 6.18, 3.08 1.23, 15.11 0 M0 15.11 C-1.14 5.51, 3.97 0.58, 15.11 0" stroke="#0b7285" stroke-width="1" fill="none"></path></g><g transform="translate(352.18028259277344 251.12939453125) rotate(0 104 12.5)"><text x="0" y="18" font-family="Virgil, Segoe UI Emoji" font-size="20px" fill="#0b7285" text-anchor="start" style="white-space: pre;" direction="ltr">Telar Social Backend</text></g><g stroke-linecap="round" transform="translate(14.682205200195312 162.87307739257812) rotate(0 131.7382049560547 30.217681884765625)"><path d="M15.11 0 M15.11 0 C106.46 1.74, 194.33 1.14, 248.37 0 M15.11 0 C71.93 -1.08, 129.76 0.06, 248.37 0 M248.37 0 C258.52 0.37, 265.34 4.89, 263.48 15.11 M248.37 0 C259.33 -1.91, 265.13 7.09, 263.48 15.11 M263.48 15.11 C264.99 25.37, 262.42 39.13, 263.48 45.33 M263.48 15.11 C264.15 23.19, 264.47 30.7, 263.48 45.33 M263.48 45.33 C263.89 54.53, 258.2 59.65, 248.37 60.44 M263.48 45.33 C261.18 53.99, 259.32 61.72, 248.37 60.44 M248.37 60.44 C182.84 59.97, 115.34 62.71, 15.11 60.44 M248.37 60.44 C175.75 62.18, 103.82 62.83, 15.11 60.44 M15.11 60.44 C5.67 62.14, 0.76 57.11, 0 45.33 M15.11 60.44 C3.86 61.61, 0.93 55.84, 0 45.33 M0 45.33 C-0.1 35.23, -0.91 25.37, 0 15.11 M0 45.33 C0.15 37.2, 0.18 28.64, 0 15.11 M0 15.11 C-1.63 5.41, 6.6 -1.85, 15.11 0 M0 15.11 C2.01 6.33, 6.54 1.78, 15.11 0" stroke="#1864ab" stroke-width="1" fill="none"></path></g><g transform="translate(98.02159118652344 181.06195068359375) rotate(0 49 12.5)"><text x="0" y="18" font-family="Virgil, Segoe UI Emoji" font-size="20px" fill="#1864ab" text-anchor="start" style="white-space: pre;" direction="ltr">Telar Web</text></g><g stroke-linecap="round" transform="translate(289.63194274902344 162.59100341796875) rotate(0 126.93809509277344 30.217681884765625)"><path d="M15.11 0 M15.11 0 C72.93 1.09, 128.51 3.07, 238.77 0 M15.11 0 C102.07 0.47, 187.37 0.75, 238.77 0 M238.77 0 C249.53 1.81, 255.49 6.73, 253.88 15.11 M238.77 0 C247.24 2.3, 252.14 3.06, 253.88 15.11 M253.88 15.11 C254.49 23.1, 253.11 26.97, 253.88 45.33 M253.88 15.11 C254.04 25.85, 254.12 39.08, 253.88 45.33 M253.88 45.33 C253.56 56.65, 248.9 58.76, 238.77 60.44 M253.88 45.33 C255.79 57.03, 246.69 62.05, 238.77 60.44 M238.77 60.44 C179.29 60.65, 117.84 60.43, 15.11 60.44 M238.77 60.44 C190.97 59.4, 142.73 59.28, 15.11 60.44 M15.11 60.44 C6.75 61.96, 1.67 54.86, 0 45.33 M15.11 60.44 C6.42 61.04, -1.35 57.56, 0 45.33 M0 45.33 C0.17 32.56, -1.08 21.35, 0 15.11 M0 45.33 C-0.13 35.58, -0.79 26.5, 0 15.11 M0 15.11 C1.74 6.95, 6.92 -1.21, 15.11 0 M0 15.11 C2.11 7.05, 6.21 -0.93, 15.11 0" stroke="#1864ab" stroke-width="1" fill="none"></path></g><g transform="translate(303.24916076660156 180.55130004882812) rotate(0 114 12.5)"><text x="0" y="18" font-family="Virgil, Segoe UI Emoji" font-size="20px" fill="#1864ab" text-anchor="start" style="white-space: pre;" direction="ltr">Telar Social Serverless</text></g><g stroke-linecap="round" transform="translate(560.4587860107422 162.0118408203125) rotate(0 122.36650085449219 30.217681884765625)"><path d="M15.11 0 M15.11 0 C90.52 0.25, 165.37 1.77, 229.62 0 M15.11 0 C87.62 1.97, 159.08 1.13, 229.62 0 M229.62 0 C238.1 0.24, 243.11 4.39, 244.73 15.11 M229.62 0 C239.48 0.2, 245.21 6.28, 244.73 15.11 M244.73 15.11 C245.18 23.19, 245.81 34.3, 244.73 45.33 M244.73 15.11 C244.03 26.57, 244.74 37.08, 244.73 45.33 M244.73 45.33 C246.3 56.19, 239.02 61.12, 229.62 60.44 M244.73 45.33 C246.18 54.97, 239.54 61.11, 229.62 60.44 M229.62 60.44 C154.54 58.18, 76.53 57.68, 15.11 60.44 M229.62 60.44 C145.77 59.66, 61.73 59.6, 15.11 60.44 M15.11 60.44 C7 58.85, 0.78 57.01, 0 45.33 M15.11 60.44 C7.16 62.33, 1.58 55.54, 0 45.33 M0 45.33 C-1.85 32.76, -1.85 19.91, 0 15.11 M0 45.33 C-0.03 35.2, -0.89 26.01, 0 15.11 M0 15.11 C-1.54 6.24, 5.04 -1.55, 15.11 0 M0 15.11 C1.74 4.43, 7.2 0.6, 15.11 0" stroke="#c92a2a" stroke-width="1" fill="none"></path></g><g transform="translate(598.9909820556641 179.28640747070312) rotate(0 87 12.5)"><text x="0" y="18" font-family="Virgil, Segoe UI Emoji" font-size="20px" fill="#c92a2a" text-anchor="start" style="white-space: pre;" direction="ltr">WebSocket Server</text></g><g stroke-linecap="round" transform="translate(10.937911987304688 88.36785888671875) rotate(0 398.14903259277344 30.217681884765625)"><path d="M15.11 0 M15.11 0 C176.66 1.44, 338.39 0.23, 781.19 0 M15.11 0 C294.19 2.83, 573.4 2.82, 781.19 0 M781.19 0 C792.02 0.11, 794.6 4.07, 796.3 15.11 M781.19 0 C789.15 -1.22, 798.2 4.52, 796.3 15.11 M796.3 15.11 C794.96 27.58, 798.04 36.56, 796.3 45.33 M796.3 15.11 C796.1 25.84, 795.2 38.1, 796.3 45.33 M796.3 45.33 C798.23 57.39, 789.6 59.63, 781.19 60.44 M796.3 45.33 C795.43 53.39, 789.3 59.16, 781.19 60.44 M781.19 60.44 C501.74 58.01, 222.98 58.49, 15.11 60.44 M781.19 60.44 C621.5 62.02, 461.16 61.91, 15.11 60.44 M15.11 60.44 C4.99 58.58, 0.43 57.3, 0 45.33 M15.11 60.44 C2.84 61.18, 2.19 53.28, 0 45.33 M0 45.33 C1.82 36.96, 0.02 29.33, 0 15.11 M0 45.33 C-0.4 35.53, 0.83 26.75, 0 15.11 M0 15.11 C-0.06 4.69, 6.12 -1.59, 15.11 0 M0 15.11 C1.12 5.31, 5.95 -1.16, 15.11 0" stroke="#2b8a3e" stroke-width="1" fill="none"></path></g><g transform="translate(352.7437286376953 104.84341430664062) rotate(0 67.5 12.5)"><text x="0" y="18" font-family="Virgil, Segoe UI Emoji" font-size="20px" fill="#2b8a3e" text-anchor="start" style="white-space: pre;" direction="ltr">API Gateway</text></g><g stroke-linecap="round" transform="translate(13.546127319335938 10) rotate(0 398.14903259277344 30.217681884765625)"><path d="M15.11 0 M15.11 0 C198.29 2.62, 381.27 2.1, 781.19 0 M15.11 0 C224.81 2.93, 435.09 3.03, 781.19 0 M781.19 0 C792.5 -0.94, 796.61 4.49, 796.3 15.11 M781.19 0 C791.31 2.22, 797.14 3.15, 796.3 15.11 M796.3 15.11 C796.81 26.28, 797.97 40.02, 796.3 45.33 M796.3 15.11 C796.34 20.66, 796.03 28.87, 796.3 45.33 M796.3 45.33 C797.04 54.61, 792.68 60.88, 781.19 60.44 M796.3 45.33 C798.22 55.61, 792.3 58.53, 781.19 60.44 M781.19 60.44 C482.52 62.48, 182.61 61.51, 15.11 60.44 M781.19 60.44 C584.64 60.29, 387.98 60.62, 15.11 60.44 M15.11 60.44 C3.36 58.99, -0.93 54.87, 0 45.33 M15.11 60.44 C6.09 60.94, -1.77 53.47, 0 45.33 M0 45.33 C-1.35 35.37, 0.51 26.96, 0 15.11 M0 45.33 C0.06 34.09, -0.28 24.79, 0 15.11 M0 15.11 C-0.36 4.54, 6.24 0.59, 15.11 0 M0 15.11 C-1.48 5.8, 5.04 0.57, 15.11 0" stroke="#e67700" stroke-width="1" fill="none"></path></g><g transform="translate(285.5030059814453 26.018402099609375) rotate(0 125 12.5)"><text x="0" y="18" font-family="Virgil, Segoe UI Emoji" font-size="20px" fill="#e67700" text-anchor="start" style="white-space: pre;" direction="ltr">Telar Social Frontend(UI)</text></g><g stroke-linecap="round" transform="translate(15.677749633789062 451.42930603027344) rotate(0 396.6836395263672 22.82684326171875)"><path d="M11.41 0 M11.41 0 C241.68 -1.17, 470.78 -2.14, 781.95 0 M11.41 0 C279.76 -1.48, 548.2 -1.59, 781.95 0 M781.95 0 C789.93 -1.12, 794.97 2.87, 793.37 11.41 M781.95 0 C787.83 1.77, 791.27 2.05, 793.37 11.41 M793.37 11.41 C793.41 14.77, 794.11 22.3, 793.37 34.24 M793.37 11.41 C793.9 18.59, 793.48 24.61, 793.37 34.24 M793.37 34.24 C794.37 43.5, 791.2 45.13, 781.95 45.65 M793.37 34.24 C794.39 43, 791.31 45.12, 781.95 45.65 M781.95 45.65 C544.91 47.34, 309.96 48.15, 11.41 45.65 M781.95 45.65 C554.8 44, 327.25 44.01, 11.41 45.65 M11.41 45.65 C4.52 43.81, -1.4 40.17, 0 34.24 M11.41 45.65 C3.52 46.57, -0.29 42.94, 0 34.24 M0 34.24 C2 26.88, -0.66 23.18, 0 11.41 M0 34.24 C-0.66 28.59, 0.51 22.77, 0 11.41 M0 11.41 C-0.26 3.4, 5.25 0.37, 11.41 0 M0 11.41 C1.37 4.84, 4.29 -0.58, 11.41 0" stroke="#862e9c" stroke-width="1" fill="none"></path></g><g transform="translate(191.6395721435547 461.9654083251953) rotate(0 224 12.5)"><text x="0" y="18" font-family="Virgil, Segoe UI Emoji" font-size="20px" fill="#862e9c" text-anchor="start" style="white-space: pre;" direction="ltr">Private/public/on-premise cloud or Self-hosted</text></g></svg>