<svg version="1.1" xmlns="http://www.w3.org/2000/svg" viewBox="0 0 849.1269226074219 316.35406494140625" width="1698.2538452148438" height="632.7081298828125">
  <!-- svg-source:excalidraw -->
  
  <defs>
    <style>
      @font-face {
        font-family: "Virgil";
        src: url("https://excalidraw.com/Virgil.woff2");
      }
      @font-face {
        font-family: "Cascadia";
        src: url("https://excalidraw.com/Cascadia.woff2");
      }
    </style>
  </defs>
  <g stroke-linecap="round" transform="translate(10 10) rotate(0 414.56346130371094 148.17703247070312)"><path d="M14.44 23.15 C14.44 23.15, 14.44 23.15, 14.44 23.15 M14.44 23.15 C14.44 23.15, 14.44 23.15, 14.44 23.15 M8.27 36.34 C14.23 28.98, 23.12 22.29, 25.98 15.96 M8.27 36.34 C11.07 32.33, 15.52 28.47, 25.98 15.96 M6.04 45 C15.47 31.74, 26.24 18.53, 35.56 11.04 M6.04 45 C17.49 32.84, 28.47 20.22, 35.56 11.04 M3.15 54.42 C17.78 38.62, 33.82 22.6, 44.49 6.87 M3.15 54.42 C16.25 39.42, 29.77 23.52, 44.49 6.87 M4.21 59.31 C14.34 45.33, 26.94 33.75, 50.79 5.72 M4.21 59.31 C19.51 42.42, 34.11 24.5, 50.79 5.72 M3.94 65.7 C17.69 50.56, 28.86 36.16, 58.4 3.06 M3.94 65.7 C16.39 50.92, 29.57 37.2, 58.4 3.06 M1.06 75.12 C16.16 56.61, 32.18 41.11, 64.04 2.67 M1.06 75.12 C24.23 49.22, 46.13 24.71, 64.04 2.67 M0.8 81.52 C17.33 62.42, 36.31 39.42, 69.68 2.27 M0.8 81.52 C15.13 63.82, 28.9 47.27, 69.68 2.27 M1.19 87.16 C29.48 56.48, 58.88 23.86, 75.98 1.12 M1.19 87.16 C31.03 52.83, 61.51 18.23, 75.98 1.12 M0.93 93.56 C19.29 70.94, 38.88 51.99, 80.97 1.48 M0.93 93.56 C28.1 64.06, 53.76 33.48, 80.97 1.48 M1.32 99.2 C24.7 72.4, 47.57 44.99, 86.61 1.09 M1.32 99.2 C22.96 73.11, 45.14 46.66, 86.61 1.09 M1.06 105.6 C34.03 67.92, 67.15 24.89, 91.6 1.45 M1.06 105.6 C30.75 70.7, 59.78 38.51, 91.6 1.45 M0.8 112 C27.49 82.14, 54.76 49.63, 97.24 1.06 M0.8 112 C26.3 82.11, 54.14 52.39, 97.24 1.06 M1.2 117.64 C31.84 85.02, 60.83 51.11, 102.23 1.42 M1.2 117.64 C33.92 78.12, 66.69 39.46, 102.23 1.42 M0.93 124.04 C29.38 88.94, 58.03 57.94, 107.22 1.78 M0.93 124.04 C42.39 76.11, 85.47 29.09, 107.22 1.78 M1.33 129.68 C37.92 85.39, 75.46 44.26, 112.86 1.38 M1.33 129.68 C42.71 80.31, 86.21 32.33, 112.86 1.38 M1.07 136.08 C30.34 102.33, 61.33 69.43, 117.85 1.74 M1.07 136.08 C40.25 91.66, 79.54 47.57, 117.85 1.74 M0.81 142.48 C40.39 100.33, 78.93 56.85, 123.49 1.35 M0.81 142.48 C37.72 101.09, 73.59 58.61, 123.49 1.35 M1.2 148.12 C47.72 95.75, 95.38 38.72, 128.48 1.71 M1.2 148.12 C30.33 112.63, 59.6 78.12, 128.48 1.71 M0.94 154.52 C44.15 105.36, 89.83 54.14, 134.12 1.31 M0.94 154.52 C49.6 97.23, 99 41.23, 134.12 1.31 M1.33 160.16 C44.56 112.28, 84.57 63.92, 139.11 1.67 M1.33 160.16 C57.28 98.19, 111.13 36.4, 139.11 1.67 M1.07 166.56 C56.16 106.18, 107.37 44.61, 144.75 1.28 M1.07 166.56 C41.55 117.88, 83.66 70.44, 144.75 1.28 M0.81 172.96 C44.93 121.09, 88.76 70.76, 149.74 1.64 M0.81 172.96 C48.84 118, 96.51 62.18, 149.74 1.64 M1.21 178.6 C50.36 119.93, 99.11 62.53, 155.38 1.24 M1.21 178.6 C39.53 134.29, 78.07 90.58, 155.38 1.24 M0.94 185 C45 135.86, 88.37 84.95, 160.37 1.6 M0.94 185 C48.58 130.54, 95.09 75.81, 160.37 1.6 M1.34 190.64 C55.97 127.94, 107.68 64.04, 166.01 1.21 M1.34 190.64 C33.94 149.87, 68.7 110.57, 166.01 1.21 M1.08 197.04 C60.02 129.82, 121.73 58.64, 171 1.57 M1.08 197.04 C39.16 154.72, 74.5 114.33, 171 1.57 M0.82 203.44 C44.71 150.46, 90.45 101.26, 176.64 1.17 M0.82 203.44 C41.93 157.34, 83.69 109.75, 176.64 1.17 M1.21 209.08 C62.86 139.52, 122.22 67.72, 181.63 1.53 M1.21 209.08 C57.14 142.4, 113.47 78.73, 181.63 1.53 M0.95 215.48 C40.16 169.49, 80.76 122.82, 187.27 1.14 M0.95 215.48 C70.64 135.02, 140.11 55.77, 187.27 1.14 M0.03 222.63 C39.11 175.24, 81.63 130.67, 192.26 1.5 M0.03 222.63 C50.95 163.29, 104.86 101.94, 192.26 1.5 M0.43 228.27 C51.84 171.7, 99.7 116.44, 197.9 1.11 M0.43 228.27 C73 145.8, 144.29 61.67, 197.9 1.11 M0.82 233.92 C53.25 175.33, 104.31 118.28, 202.89 1.47 M0.82 233.92 C67.43 158.56, 132.89 82.83, 202.89 1.47 M1.22 239.56 C52.49 182.92, 100.46 126.2, 208.53 1.07 M1.22 239.56 C71.1 158.12, 140.47 78.76, 208.53 1.07 M4.23 242.18 C71.13 165.98, 137.46 86.88, 213.52 1.43 M4.23 242.18 C70.11 166.17, 136.49 88.88, 213.52 1.43 M5.28 247.07 C91.02 148.92, 175.77 51.47, 218.5 1.79 M5.28 247.07 C68.87 174.55, 133.4 100.5, 218.5 1.79 M6.99 251.21 C85.32 159.46, 162.72 70.73, 224.15 1.4 M6.99 251.21 C63.3 188.08, 118.12 124.77, 224.15 1.4 M8.04 256.09 C92.82 159.66, 175.76 61.15, 229.13 1.76 M8.04 256.09 C64.3 189.93, 123.24 122.81, 229.13 1.76 M8.44 261.74 C79.73 183.06, 147.1 103.69, 234.78 1.36 M8.44 261.74 C93.22 164.64, 175.63 68.04, 234.78 1.36 M10.14 265.87 C95.04 168.24, 180 72.08, 239.76 1.72 M10.14 265.87 C83.85 180.13, 158.4 95.77, 239.76 1.72 M12.51 269.25 C100.72 169.9, 187.65 70.33, 245.41 1.33 M12.51 269.25 C68.72 203.75, 124.22 140.67, 245.41 1.33 M14.21 273.38 C107.97 166.31, 198.79 60.45, 250.39 1.69 M14.21 273.38 C97.47 176.35, 181.12 80.43, 250.39 1.69 M17.23 276.01 C105.06 177.14, 194.77 76.56, 256.04 1.29 M17.23 276.01 C82.72 198.25, 149.33 121.6, 256.04 1.29 M20.25 278.63 C71.04 222.45, 121.63 164.94, 261.02 1.65 M20.25 278.63 C101.06 184.34, 182.7 90.29, 261.02 1.65 M22.61 282.01 C114.7 174.82, 205.66 70.26, 266.67 1.26 M22.61 282.01 C82.57 212.49, 141.66 143.76, 266.67 1.26 M25.63 284.63 C74.86 226.66, 128.18 165.7, 271.65 1.62 M25.63 284.63 C85.24 217.18, 142.28 150.74, 271.65 1.62 M29.31 286.5 C99.73 208.31, 168.42 127.09, 277.3 1.22 M29.31 286.5 C112.71 192.74, 194.26 98.45, 277.3 1.22 M32.98 288.37 C116.92 194.36, 197.04 98.09, 282.28 1.58 M32.98 288.37 C105.06 206.13, 176.43 123.09, 282.28 1.58 M36.66 290.24 C97.99 222.77, 156.51 154.07, 287.93 1.19 M36.66 290.24 C104.03 214.18, 170.66 137.53, 287.93 1.19 M40.33 292.11 C123.34 195.02, 209.58 97.96, 292.91 1.55 M40.33 292.11 C125.75 192.85, 214.3 92.65, 292.91 1.55 M44.01 293.98 C144.97 178.88, 246.25 63.77, 298.56 1.15 M44.01 293.98 C99.52 227.82, 156.21 162.76, 298.56 1.15 M48.34 295.1 C131.23 196.81, 215.81 101.1, 303.54 1.51 M48.34 295.1 C132.66 197.35, 218.12 100.06, 303.54 1.51 M52.67 296.21 C152.8 183.84, 251.63 67.22, 309.19 1.12 M52.67 296.21 C134.01 202.33, 214.39 110.59, 309.19 1.12 M57.66 296.57 C123.66 220.77, 189.23 146.36, 314.17 1.48 M57.66 296.57 C151.94 188.26, 245.21 80.26, 314.17 1.48 M62.64 296.93 C122.9 228.15, 184.14 159.28, 319.82 1.09 M62.64 296.93 C136.54 212.52, 210.84 127.16, 319.82 1.09 M67.63 297.29 C166.02 186.1, 264.73 73.84, 324.8 1.45 M67.63 297.29 C130.68 224.06, 193.99 150.79, 324.8 1.45 M73.27 296.9 C137.96 224.23, 199.01 150.36, 330.45 1.05 M73.27 296.9 C131.86 229.1, 191.66 161.39, 330.45 1.05 M76.95 298.77 C131.33 234.05, 188.06 169.54, 335.43 1.41 M76.95 298.77 C177.05 184.94, 275.88 70.39, 335.43 1.41 M81.93 299.13 C160.44 206.59, 238.54 116.53, 340.42 1.77 M81.93 299.13 C152.69 217.72, 224.14 135.33, 340.42 1.77 M87.58 298.73 C145.21 232.74, 201.55 168.72, 346.07 1.38 M87.58 298.73 C150.73 222.73, 216.08 148.36, 346.07 1.38 M92.56 299.09 C194.07 181.73, 294.85 66.27, 351.05 1.74 M92.56 299.09 C165.79 213.07, 239.24 127.74, 351.05 1.74 M98.21 298.7 C166.01 222.71, 233 145.61, 356.7 1.34 M98.21 298.7 C182.53 199.49, 267.52 102.24, 356.7 1.34 M103.19 299.06 C173.69 219.69, 245.51 139.38, 361.68 1.7 M103.19 299.06 C198.56 189.04, 293.74 79.56, 361.68 1.7 M108.84 298.66 C202.14 190.85, 296.65 81.56, 367.33 1.31 M108.84 298.66 C206.65 186.39, 302.67 75.95, 367.33 1.31 M113.83 299.02 C213.23 182.45, 314.37 66.87, 372.31 1.67 M113.83 299.02 C208.46 191.76, 302.46 82.81, 372.31 1.67 M119.47 298.63 C219.36 183.71, 318.83 69.22, 377.96 1.27 M119.47 298.63 C207.14 196.88, 295.35 95.65, 377.96 1.27 M124.46 298.99 C223.64 182.1, 325.1 67.89, 382.94 1.63 M124.46 298.99 C218.63 190.12, 312.55 82.05, 382.94 1.63 M130.1 298.59 C212.03 203.42, 293.61 110.08, 388.59 1.24 M130.1 298.59 C201.25 215.39, 273.57 132.97, 388.59 1.24 M135.09 298.95 C233.59 184.73, 332.62 69.38, 393.57 1.6 M135.09 298.95 C235.77 185.43, 335.81 69.78, 393.57 1.6 M140.73 298.56 C237.58 185.24, 336.26 73.76, 399.22 1.2 M140.73 298.56 C193.03 237.71, 246.13 177.24, 399.22 1.2 M145.72 298.92 C218.14 215.92, 291.54 131.2, 404.2 1.56 M145.72 298.92 C223.13 213.11, 299.29 124.78, 404.2 1.56 M151.36 298.53 C237.31 199.36, 325.35 98.79, 409.85 1.17 M151.36 298.53 C212.81 227.67, 274.87 155.62, 409.85 1.17 M156.35 298.89 C227.49 215.67, 300.36 133.98, 414.83 1.53 M156.35 298.89 C232.05 211.92, 307.19 125.78, 414.83 1.53 M161.99 298.49 C263.77 180.42, 365.17 63.69, 420.48 1.14 M161.99 298.49 C240.83 209.11, 319.67 118.89, 420.48 1.14 M166.98 298.85 C256.01 194.05, 348.1 90.32, 425.46 1.5 M166.98 298.85 C223.29 233.75, 279.02 170.49, 425.46 1.5 M172.62 298.46 C244.21 216.83, 316.44 134.74, 431.11 1.1 M172.62 298.46 C272.29 184.04, 371.68 70.35, 431.11 1.1 M177.61 298.82 C270.93 191.23, 366.62 82.04, 436.09 1.46 M177.61 298.82 C240.03 226.72, 303.41 154.08, 436.09 1.46 M183.25 298.42 C273.47 193.02, 366.68 85.68, 441.74 1.07 M183.25 298.42 C251.11 218.13, 318.89 139.42, 441.74 1.07 M188.24 298.78 C283.59 189.55, 379.35 80.72, 446.72 1.43 M188.24 298.78 C289.96 181.34, 393.41 62.79, 446.72 1.43 M193.88 298.39 C281.73 196.37, 370.91 91.51, 451.71 1.79 M193.88 298.39 C254.22 230.48, 313.47 162.25, 451.71 1.79 M198.87 298.75 C274.78 207.71, 353.75 117.27, 457.35 1.39 M198.87 298.75 C259.82 229.35, 321.06 158.6, 457.35 1.39 M203.85 299.11 C303.86 186.66, 404.17 71.87, 462.34 1.75 M203.85 299.11 C292.44 197.95, 379.74 97.95, 462.34 1.75 M209.5 298.71 C285.43 213.91, 357.96 128.9, 467.98 1.36 M209.5 298.71 C300.79 194.03, 391.76 89.21, 467.98 1.36 M214.48 299.07 C304.03 194.81, 393.65 93.53, 472.97 1.72 M214.48 299.07 C304 195.6, 393.08 92.4, 472.97 1.72 M220.13 298.68 C307.57 202.09, 392.71 103.85, 478.61 1.32 M220.13 298.68 C294.83 214.16, 368.84 129.56, 478.61 1.32 M225.11 299.04 C314.07 197.97, 402.47 94.33, 483.6 1.68 M225.11 299.04 C326.2 184.13, 428.25 66.28, 483.6 1.68 M230.76 298.64 C289.98 231, 348.04 163.99, 489.24 1.29 M230.76 298.64 C282.69 237.66, 335.34 176.84, 489.24 1.29 M235.74 299 C296.07 227.83, 357.26 157.47, 494.23 1.65 M235.74 299 C317.51 207.71, 398.61 113.73, 494.23 1.65 M241.39 298.61 C308.29 219.61, 377.38 140.59, 499.87 1.25 M241.39 298.61 C300.1 231.94, 358.38 164.44, 499.87 1.25 M246.37 298.97 C323.46 208.58, 403.45 115.79, 504.86 1.61 M246.37 298.97 C331.1 202.2, 415.4 105.74, 504.86 1.61 M252.02 298.58 C327.15 210.18, 404.06 121.14, 510.5 1.22 M252.02 298.58 C332.46 208.44, 412.33 117.34, 510.5 1.22 M257 298.94 C353.45 189.42, 449.76 77.26, 515.49 1.58 M257 298.94 C346.52 196.42, 435 93.86, 515.49 1.58 M262.65 298.54 C334.59 212.92, 407.95 129.15, 521.13 1.19 M262.65 298.54 C348.79 200.41, 435.04 101.32, 521.13 1.19 M267.63 298.9 C340.92 212.18, 415.86 125.41, 526.12 1.55 M267.63 298.9 C336.93 221.56, 403.73 143.03, 526.12 1.55 M273.28 298.51 C366.25 189.83, 459.42 82.93, 531.76 1.15 M273.28 298.51 C336.59 226.34, 397.92 155.48, 531.76 1.15 M278.26 298.87 C343.91 220.07, 413.2 143.55, 536.75 1.51 M278.26 298.87 C347.8 219.23, 417.48 138.89, 536.75 1.51 M283.91 298.47 C375.44 193.43, 467.06 87.58, 542.39 1.12 M283.91 298.47 C360.03 211.04, 435.77 124.14, 542.39 1.12 M288.89 298.83 C369.84 207.02, 450.38 115.07, 547.38 1.48 M288.89 298.83 C376.82 195.18, 465.56 93.69, 547.38 1.48 M294.54 298.44 C366.53 216.79, 437.97 136.34, 553.02 1.08 M294.54 298.44 C347.93 236.53, 399.88 176.5, 553.02 1.08 M299.52 298.8 C353.67 239.83, 403.89 179.94, 558.01 1.44 M299.52 298.8 C388.27 195.78, 480.09 90.67, 558.01 1.44 M305.17 298.4 C361.52 235.84, 418.55 168.79, 563.65 1.05 M305.17 298.4 C360.81 232.83, 417.52 168.01, 563.65 1.05 M310.15 298.76 C396.74 195.85, 485.07 95.54, 568.64 1.41 M310.15 298.76 C399.81 194.91, 489.93 92.14, 568.64 1.41 M315.8 298.37 C385.01 219.11, 453.41 140.53, 573.63 1.77 M315.8 298.37 C373.12 232, 432.05 164.54, 573.63 1.77 M320.78 298.73 C387.76 221.2, 457.16 143.25, 579.27 1.37 M320.78 298.73 C389.95 216.48, 461.05 135.08, 579.27 1.37 M326.43 298.33 C423.43 183.85, 521.68 71.41, 584.26 1.73 M326.43 298.33 C390.38 224.31, 456.96 148.01, 584.26 1.73 M331.41 298.69 C420.97 197.22, 509.02 93.92, 589.9 1.34 M331.41 298.69 C398.55 220.18, 467.59 140.35, 589.9 1.34 M336.4 299.05 C419.3 202.33, 504.92 105.18, 594.89 1.7 M336.4 299.05 C431.23 191.05, 525.47 82.05, 594.89 1.7 M342.04 298.66 C418.13 212.92, 491.76 126.48, 600.53 1.3 M342.04 298.66 C429.81 195.06, 519.67 90.89, 600.53 1.3 M347.03 299.02 C436.22 199.46, 523.11 97.57, 605.52 1.66 M347.03 299.02 C443.09 190.54, 539 80.47, 605.52 1.66 M352.67 298.62 C418.08 226.64, 481.04 153.19, 611.16 1.27 M352.67 298.62 C438.99 202.12, 523.08 105.15, 611.16 1.27 M357.66 298.98 C418.82 228.02, 479.65 157.21, 616.15 1.63 M357.66 298.98 C436.54 209.14, 514.32 120.06, 616.15 1.63 M363.3 298.59 C440 212.45, 515.72 123.96, 621.79 1.23 M363.3 298.59 C439.93 207.29, 519.48 115.64, 621.79 1.23 M368.29 298.95 C457.25 197.61, 543.7 96.69, 626.78 1.59 M368.29 298.95 C456.71 197.36, 545.73 94.56, 626.78 1.59 M373.93 298.56 C465.03 195.78, 555.97 89.47, 632.42 1.2 M373.93 298.56 C469.83 187.31, 565.62 76.78, 632.42 1.2 M378.92 298.92 C467.54 194.59, 557.87 93.16, 637.41 1.56 M378.92 298.92 C462.74 202.03, 547.39 104.51, 637.41 1.56 M384.56 298.52 C458.09 216.47, 528.56 134.37, 643.05 1.17 M384.56 298.52 C464.8 208.73, 543.95 116.84, 643.05 1.17 M389.55 298.88 C448.92 231.02, 509.77 160.41, 648.04 1.53 M389.55 298.88 C443.31 237.19, 495.79 176.03, 648.04 1.53 M395.19 298.49 C486.25 193.96, 576.87 89.3, 653.68 1.13 M395.19 298.49 C464.83 215.77, 535.92 133.87, 653.68 1.13 M400.18 298.85 C499.77 184.16, 596.9 72.46, 658.67 1.49 M400.18 298.85 C498.74 185.42, 596.29 72.94, 658.67 1.49 M405.82 298.45 C460.15 239.79, 510.98 179.63, 664.31 1.1 M405.82 298.45 C492.55 199.68, 579.55 98.75, 664.31 1.1 M410.81 298.81 C470.86 229.65, 529.97 162.56, 669.3 1.46 M410.81 298.81 C509.57 183.06, 609.88 67.38, 669.3 1.46 M416.45 298.42 C492.59 210.34, 567.87 125.25, 674.94 1.06 M416.45 298.42 C503.33 197.5, 590.17 97.47, 674.94 1.06 M421.44 298.78 C481.06 229.9, 542.08 162.76, 679.93 1.42 M421.44 298.78 C473.68 235.73, 527.55 173.37, 679.93 1.42 M427.08 298.38 C481.22 234.84, 536.06 172.02, 684.92 1.78 M427.08 298.38 C481.06 238.34, 533.68 176.89, 684.92 1.78 M432.07 298.74 C510.67 204.96, 592 111.53, 690.56 1.39 M432.07 298.74 C524.19 193.59, 617.47 86.59, 690.56 1.39 M437.71 298.35 C489.38 238.09, 543.27 176.88, 695.55 1.75 M437.71 298.35 C508.13 218.73, 578 137.19, 695.55 1.75 M442.7 298.71 C542.7 184.47, 641.61 70.97, 701.19 1.35 M442.7 298.71 C545.11 181.57, 645.96 64.13, 701.19 1.35 M448.34 298.31 C508.7 227.49, 569.21 159.07, 706.18 1.71 M448.34 298.31 C537.82 194.65, 627.53 91.17, 706.18 1.71 M453.33 298.67 C515.9 225.5, 580.77 153.54, 711.82 1.32 M453.33 298.67 C508.54 235.31, 562.3 173.76, 711.82 1.32 M458.97 298.28 C537.67 208.14, 614.04 118.28, 716.81 1.68 M458.97 298.28 C519.57 228.32, 580.53 159.42, 716.81 1.68 M463.96 298.64 C535.97 214.31, 610.24 129.55, 722.45 1.28 M463.96 298.64 C551.08 198.87, 637.68 97.95, 722.45 1.28 M468.95 299 C560.5 194, 651.33 89.28, 727.44 1.64 M468.95 299 C527.14 231.38, 584.9 165.28, 727.44 1.64 M474.59 298.61 C571.22 189.88, 666.88 80.06, 733.08 1.25 M474.59 298.61 C540.13 221.91, 604.72 146.87, 733.08 1.25 M479.58 298.97 C574.02 191.53, 668.37 85.45, 738.07 1.61 M479.58 298.97 C582.54 181.87, 684.74 64.6, 738.07 1.61 M485.22 298.57 C577.78 191.47, 671.15 86.58, 743.71 1.22 M485.22 298.57 C554.67 219.14, 624.83 139.02, 743.71 1.22 M490.21 298.93 C551.83 229.33, 615.01 156.58, 748.7 1.58 M490.21 298.93 C570.59 205.46, 652.08 110.92, 748.7 1.58 M495.85 298.54 C595.21 182.08, 695.91 65, 755 0.43 M495.85 298.54 C556.31 229.32, 617.57 159.31, 755 0.43 M500.84 298.9 C590.91 197.32, 678.96 96.26, 759.98 0.79 M500.84 298.9 C590.95 196.28, 681.56 92.37, 759.98 0.79 M506.48 298.5 C608.45 180.12, 711.7 61.23, 764.97 1.15 M506.48 298.5 C569.41 226.42, 631.31 153.72, 764.97 1.15 M511.47 298.86 C600.05 199.06, 688.9 96.89, 769.96 1.51 M511.47 298.86 C598.78 200.12, 684.87 100.27, 769.96 1.51 M517.11 298.47 C620.04 182.67, 722.38 64.51, 774.29 2.62 M517.11 298.47 C597.82 205.14, 680.14 110.89, 774.29 2.62 M522.1 298.83 C613.73 191.25, 707.3 83.51, 778.62 3.74 M522.1 298.83 C600.94 204.79, 682.24 111.78, 778.62 3.74 M527.74 298.43 C628.17 184.08, 727.66 70.98, 782.95 4.85 M527.74 298.43 C613.34 201.28, 698.97 103.47, 782.95 4.85 M532.73 298.79 C600.74 218.31, 670.17 139.82, 787.94 5.21 M532.73 298.79 C587.9 234.75, 641.88 171.22, 787.94 5.21 M538.37 298.4 C602.41 223.02, 667.15 147.56, 791.61 7.08 M538.37 298.4 C613.22 211.77, 688.31 126.59, 791.61 7.08 M543.36 298.76 C631.53 198.68, 717.44 97.63, 795.29 8.95 M543.36 298.76 C630.35 198.31, 717.09 97.67, 795.29 8.95 M549 298.36 C618.46 218.92, 688.04 137.46, 799.62 10.06 M549 298.36 C609.14 226.16, 671.71 155.63, 799.62 10.06 M553.99 298.72 C609.61 236.71, 663.72 172.34, 802.64 12.69 M553.99 298.72 C630.86 209.61, 709.18 118.77, 802.64 12.69 M559.63 298.33 C609.32 241.8, 659.34 185.04, 805.65 15.31 M559.63 298.33 C652.76 190.48, 745.46 83.4, 805.65 15.31 M564.62 298.69 C651.69 196.19, 740.39 94.5, 808.67 17.94 M564.62 298.69 C639.4 210.14, 715.86 122.89, 808.67 17.94 M570.26 298.29 C665.06 193.43, 757.36 86.87, 811.69 20.56 M570.26 298.29 C644.2 211.77, 718.98 125.82, 811.69 20.56 M575.25 298.66 C662.89 197.12, 752.24 95.53, 814.71 23.19 M575.25 298.66 C626.81 236.25, 680.44 175.18, 814.71 23.19 M580.89 298.26 C639.46 230.91, 698.27 161.91, 817.73 25.81 M580.89 298.26 C629.61 240.68, 679.67 183.13, 817.73 25.81 M585.88 298.62 C650.24 222.99, 714.36 150.39, 820.09 29.19 M585.88 298.62 C660.17 214.73, 733.21 130.14, 820.09 29.19 M591.52 298.23 C641.52 240.33, 691.93 183.96, 821.8 33.32 M591.52 298.23 C656.48 223.62, 720.77 149.61, 821.8 33.32 M596.51 298.59 C654.09 234.61, 712.81 169.12, 824.16 36.7 M596.51 298.59 C676.76 210.31, 754.74 119.9, 824.16 36.7 M601.5 298.95 C687.84 201.88, 773.51 102.22, 825.21 41.59 M601.5 298.95 C660.15 232.83, 717.43 166.18, 825.21 41.59 M607.14 298.55 C675.78 219.67, 743.34 140.8, 826.92 45.72 M607.14 298.55 C665.07 230.61, 722.5 164.13, 826.92 45.72 M612.13 298.91 C666.12 241.79, 716.63 180.55, 827.97 50.61 M612.13 298.91 C683.72 217.54, 755.36 135.46, 827.97 50.61 M617.77 298.52 C697.94 205.82, 781.31 111.6, 829.02 55.5 M617.77 298.52 C684.8 221.7, 751.65 144.89, 829.02 55.5 M622.76 298.88 C697.22 212.21, 772.79 125.52, 830.73 59.63 M622.76 298.88 C666.38 248.45, 710.72 198.33, 830.73 59.63 M628.4 298.48 C683.98 234.44, 740.15 172.89, 831.12 65.28 M628.4 298.48 C692.06 224.53, 757.29 150.67, 831.12 65.28 M633.39 298.84 C694.74 226.59, 755.3 158.13, 831.52 70.92 M633.39 298.84 C686.97 237.29, 739.42 177.39, 831.52 70.92 M639.03 298.45 C689.99 240.13, 741.52 178.98, 831.91 76.56 M639.03 298.45 C716.01 211.76, 791.83 123.85, 831.91 76.56 M644.02 298.81 C704.13 227.67, 766.59 157.5, 831.65 82.96 M644.02 298.81 C718.75 215.37, 791.25 131.7, 831.65 82.96 M649.66 298.41 C712.02 224.84, 774.35 153.78, 832.04 88.6 M649.66 298.41 C694.83 247.03, 739.65 195.46, 832.04 88.6 M654.65 298.77 C700.47 249.31, 745.73 196.37, 831.78 95 M654.65 298.77 C709.48 233.44, 766.22 169.54, 831.78 95 M660.29 298.38 C723.43 225.11, 785.95 152.52, 832.18 100.65 M660.29 298.38 C705.41 245.62, 750.56 192.92, 832.18 100.65 M665.28 298.74 C731.29 221.68, 797.12 144.01, 831.92 107.04 M665.28 298.74 C718.56 235.5, 772.37 173.09, 831.92 107.04 M670.92 298.34 C716.27 246.47, 760.85 194.27, 831.66 113.44 M670.92 298.34 C712.15 251.89, 749.8 206.67, 831.66 113.44 M675.91 298.7 C718.06 252.06, 757.93 202.98, 832.05 119.08 M675.91 298.7 C728.3 238.89, 780.95 178.74, 832.05 119.08 M681.55 298.31 C733.21 240.82, 781.51 182.81, 831.79 125.48 M681.55 298.31 C719.32 257.64, 756.28 214.56, 831.79 125.48 M686.54 298.67 C722.26 258.9, 757.83 215.23, 832.18 131.12 M686.54 298.67 C742.98 231.77, 801.46 165.97, 832.18 131.12 M692.18 298.28 C722.26 262.5, 754.46 226.05, 831.92 137.52 M692.18 298.28 C740.48 242.83, 786.76 189.92, 831.92 137.52 M697.17 298.64 C741.32 247.02, 782.2 200.35, 831.66 143.92 M697.17 298.64 C749.55 237.69, 803.65 175.48, 831.66 143.92 M702.81 298.24 C752.14 243.83, 800.41 186.01, 832.05 149.56 M702.81 298.24 C738.15 258.01, 771.5 220.05, 832.05 149.56 M707.8 298.6 C752.94 249.09, 793.39 200.04, 831.79 155.96 M707.8 298.6 C756.93 244.61, 804 191.25, 831.79 155.96 M713.44 298.21 C744.04 263.16, 776.72 228.88, 832.19 161.6 M713.44 298.21 C754.93 248.54, 798.39 199.01, 832.19 161.6 M718.43 298.57 C759.42 247, 805.5 200.47, 831.93 168 M718.43 298.57 C743.64 271.02, 766.86 245.42, 831.93 168 M724.07 298.17 C755.88 263.34, 785.03 227.77, 831.66 174.4 M724.07 298.17 C752.97 264.99, 781.88 231.22, 831.66 174.4 M729.06 298.53 C761.83 259.35, 795.67 218.98, 832.06 180.04 M729.06 298.53 C760.7 261.59, 790.9 227.05, 832.06 180.04 M734.05 298.89 C760.81 265.68, 789.76 233.44, 831.8 186.44 M734.05 298.89 C753.5 276.48, 773.86 254.03, 831.8 186.44 M739.69 298.5 C772.9 259.99, 804.02 225.84, 832.19 192.08 M739.69 298.5 C766.29 266.98, 794.7 235.63, 832.19 192.08 M744.68 298.86 C764.83 275.54, 784.62 249.55, 831.93 198.48 M744.68 298.86 C767.74 271.95, 790.86 245, 831.93 198.48 M750.32 298.46 C767.09 277.12, 788.49 258.18, 831.67 204.88 M750.32 298.46 C782.61 259.87, 816.07 222.66, 831.67 204.88 M755.31 298.82 C780.94 267.78, 809.29 235.38, 832.06 210.52 M755.31 298.82 C780.95 268.57, 809.98 236.38, 832.06 210.52 M760.95 298.43 C784.92 269.05, 810.48 242.27, 831.8 216.92 M760.95 298.43 C776.54 279.86, 792.8 262.28, 831.8 216.92 M766.59 298.03 C788.87 267.71, 816.58 240.27, 830.89 224.07 M766.59 298.03 C782.71 278.76, 799.48 261.35, 830.89 224.07 M772.89 296.88 C794.63 270.19, 816.87 243.92, 830.62 230.47 M772.89 296.88 C792.3 274.37, 811.41 252.5, 830.62 230.47 M779.19 295.74 C795.48 277.31, 810.9 262, 830.36 236.87 M779.19 295.74 C795.55 276.58, 813.44 257.56, 830.36 236.87 M787.46 292.32 C797.07 280.44, 807.81 269.95, 830.76 242.51 M787.46 292.32 C801.59 274.81, 818.1 257.61, 830.76 242.51 M797.69 286.64 C804.07 281.04, 807.98 273.34, 825.25 254.95 M797.69 286.64 C804.99 277.5, 811.99 270.35, 825.25 254.95" stroke="#ced4da" stroke-width="0.5" fill="none"></path><path d="M74.09 0 M74.09 0 C213.54 -1.9, 351.57 -1.38, 755.04 0 M74.09 0 C213.94 0.47, 354.58 0.2, 755.04 0 M755.04 0 C804.62 -1.24, 828.61 23.65, 829.13 74.09 M755.04 0 C805 -0.59, 831.29 24.53, 829.13 74.09 M829.13 74.09 C828.76 128.11, 829.27 183.31, 829.13 222.27 M829.13 74.09 C830.7 111.88, 829.98 147.77, 829.13 222.27 M829.13 222.27 C828.96 270.86, 803.35 296.83, 755.04 296.35 M829.13 222.27 C830 269.83, 803.42 296.94, 755.04 296.35 M755.04 296.35 C581.34 295.06, 408.45 296.12, 74.09 296.35 M755.04 296.35 C577.26 295.5, 399.73 295.39, 74.09 296.35 M74.09 296.35 C23.15 295.09, -0.83 270.25, 0 222.27 M74.09 296.35 C22.72 296.92, 0.88 272.75, 0 222.27 M0 222.27 C3 171.59, 2.09 118.91, 0 74.09 M0 222.27 C-1.51 185.94, -1.26 151.58, 0 74.09 M0 74.09 C-1.17 25.37, 25.99 -1.8, 74.09 0 M0 74.09 C-1 25.37, 23.02 0.29, 74.09 0" stroke="#5c940d" stroke-width="1" fill="none"></path></g><g transform="translate(291.42108154296875 263.81346130371094) rotate(0 125 12.5)"><text x="0" y="18" font-family="Virgil, Segoe UI Emoji" font-size="20px" fill="#5c940d" text-anchor="start" style="white-space: pre;" direction="ltr">Telar Social Frontend(UI)</text></g><g stroke-linecap="round" transform="translate(17.744598388671875 177.21978759765625) rotate(0 128.33493041992188 29.755615234375)"><path d="M14.88 0 M14.88 0 C103.77 2.71, 193.9 3.04, 241.79 0 M14.88 0 C104.99 0.27, 195.07 0.42, 241.79 0 M241.79 0 C251.7 -1.2, 254.93 3.05, 256.67 14.88 M241.79 0 C252.49 -0.95, 254.8 6.01, 256.67 14.88 M256.67 14.88 C258.28 19.92, 255.25 28.64, 256.67 44.63 M256.67 14.88 C257.07 22.89, 257.14 33.21, 256.67 44.63 M256.67 44.63 C257.62 54.16, 252.48 60.18, 241.79 59.51 M256.67 44.63 C255.65 53.56, 250.69 61.68, 241.79 59.51 M241.79 59.51 C174.77 60.3, 108.7 58.46, 14.88 59.51 M241.79 59.51 C159.89 60.64, 77.25 59.47, 14.88 59.51 M14.88 59.51 C6.55 58.69, 1.08 56.42, 0 44.63 M14.88 59.51 C6.66 61.35, 2.19 55.98, 0 44.63 M0 44.63 C-0.2 32.09, 0.42 20.74, 0 14.88 M0 44.63 C-0.25 34.21, -0.2 26.45, 0 14.88 M0 14.88 C1.29 5.08, 3.55 0.33, 14.88 0 M0 14.88 C-0.97 6.33, 2.82 1.83, 14.88 0" stroke="#364fc7" stroke-width="1" fill="none"></path></g><g transform="translate(117.07952880859375 194.47540283203125) rotate(0 29 12.5)"><text x="29" y="18" font-family="Virgil, Segoe UI Emoji" font-size="20px" fill="#862e9c" text-anchor="middle" style="white-space: pre;" direction="ltr">React</text></g><g stroke-linecap="round" transform="translate(22.327545166015625 105.26422119140625) rotate(0 128.33493041992188 29.755615234375)"><path d="M14.88 0 M14.88 0 C80.99 0.92, 150.37 -1.84, 241.79 0 M14.88 0 C60.46 1.73, 107.25 1.1, 241.79 0 M241.79 0 C251.06 0.89, 258.22 3.3, 256.67 14.88 M241.79 0 C252.47 2.24, 256.16 3.62, 256.67 14.88 M256.67 14.88 C257.63 25.15, 257.1 34.51, 256.67 44.63 M256.67 14.88 C257.29 27.26, 256.23 37.31, 256.67 44.63 M256.67 44.63 C256.64 53.46, 250.01 59.43, 241.79 59.51 M256.67 44.63 C258.02 56.22, 251.08 57.94, 241.79 59.51 M241.79 59.51 C173.92 60.78, 104.71 61.35, 14.88 59.51 M241.79 59.51 C192.54 60.84, 141.96 60.1, 14.88 59.51 M14.88 59.51 C6.42 58.13, -0.19 55.85, 0 44.63 M14.88 59.51 C3.02 58.23, -0.17 52.82, 0 44.63 M0 44.63 C0.41 36.18, 0.86 30.72, 0 14.88 M0 44.63 C0.67 37, 0.31 27.14, 0 14.88 M0 14.88 C-1.55 4.34, 5.65 1.86, 14.88 0 M0 14.88 C-1.49 6.83, 4.25 2.05, 14.88 0" stroke="#862e9c" stroke-width="1" fill="none"></path></g><g transform="translate(95.1624755859375 122.51983642578125) rotate(0 55.5 12.5)"><text x="55.5" y="18" font-family="Virgil, Segoe UI Emoji" font-size="20px" fill="#862e9c" text-anchor="middle" style="white-space: pre;" direction="ltr">Material-UI</text></g><g stroke-linecap="round" transform="translate(552.2679443359375 177.13888549804688) rotate(0 128.33493041992188 29.755615234375)"><path d="M14.88 0 M14.88 0 C82.02 -1, 152.6 -1.74, 241.79 0 M14.88 0 C87.43 -0.52, 161.01 0.05, 241.79 0 M241.79 0 C250.31 -0.69, 257.71 3.8, 256.67 14.88 M241.79 0 C252.59 -2.12, 257.41 5.38, 256.67 14.88 M256.67 14.88 C258.75 21.15, 256.42 30.7, 256.67 44.63 M256.67 14.88 C256.68 25.67, 257.43 34.69, 256.67 44.63 M256.67 44.63 C255.13 56.08, 252.87 58, 241.79 59.51 M256.67 44.63 C257.56 56.38, 251.9 61.79, 241.79 59.51 M241.79 59.51 C193.17 62.81, 144.44 62.19, 14.88 59.51 M241.79 59.51 C187.82 59.14, 132.72 59.49, 14.88 59.51 M14.88 59.51 C5.54 57.56, -0.59 53.11, 0 44.63 M14.88 59.51 C3.56 59.04, 1.8 54.87, 0 44.63 M0 44.63 C1.15 36.86, -0.46 31.15, 0 14.88 M0 44.63 C-0.46 38.66, -0.88 33.51, 0 14.88 M0 14.88 C-0.43 5.21, 3.37 -1.56, 14.88 0 M0 14.88 C1.63 4.41, 4.34 -1.57, 14.88 0" stroke="#364fc7" stroke-width="1" fill="none"></path></g><g transform="translate(627.6028747558594 194.39450073242188) rotate(0 53 12.5)"><text x="53" y="18" font-family="Virgil, Segoe UI Emoji" font-size="20px" fill="#364fc7" text-anchor="middle" style="white-space: pre;" direction="ltr">Inversify.js</text></g><g stroke-linecap="round" transform="translate(286.73382568359375 175.35360717773438) rotate(0 128.33493041992188 29.755615234375)"><path d="M14.88 0 M14.88 0 C72.41 0.93, 133.15 0.86, 241.79 0 M14.88 0 C92.09 1.78, 167.74 0.9, 241.79 0 M241.79 0 C250.25 -0.55, 256.19 3.03, 256.67 14.88 M241.79 0 C252.32 1.97, 257.18 6.69, 256.67 14.88 M256.67 14.88 C254.81 19.48, 257.82 25.97, 256.67 44.63 M256.67 14.88 C255.76 24.11, 256.16 34.29, 256.67 44.63 M256.67 44.63 C258.25 54.91, 252.78 57.66, 241.79 59.51 M256.67 44.63 C256.92 53.8, 253.89 58.44, 241.79 59.51 M241.79 59.51 C161.3 58.93, 83.76 59.42, 14.88 59.51 M241.79 59.51 C153.33 61.08, 65.59 59.76, 14.88 59.51 M14.88 59.51 C4.58 58.34, 1.5 56.47, 0 44.63 M14.88 59.51 C3.41 58.12, 2.27 55.2, 0 44.63 M0 44.63 C-0.44 39.84, -1.21 30.11, 0 14.88 M0 44.63 C0.19 37.5, -0.34 29.6, 0 14.88 M0 14.88 C-0.71 3.19, 4.39 0.75, 14.88 0 M0 14.88 C-1.75 4.29, 4.16 1.57, 14.88 0" stroke="#862e9c" stroke-width="1" fill="none"></path></g><g transform="translate(386.5687561035156 192.60922241210938) rotate(0 28.5 12.5)"><text x="28.5" y="18" font-family="Virgil, Segoe UI Emoji" font-size="20px" fill="#862e9c" text-anchor="middle" style="white-space: pre;" direction="ltr">Redux</text></g><g stroke-linecap="round" transform="translate(287.4544677734375 105.29776000976562) rotate(0 128.33493041992188 29.755615234375)"><path d="M14.88 0 M14.88 0 C74.5 -1.47, 134.07 0.57, 241.79 0 M14.88 0 C70.23 0.28, 124.79 1.18, 241.79 0 M241.79 0 C252.34 0.67, 254.98 5.91, 256.67 14.88 M241.79 0 C253.19 1.16, 257.15 4.92, 256.67 14.88 M256.67 14.88 C255.9 21.22, 258.32 28.56, 256.67 44.63 M256.67 14.88 C256.32 23.64, 256.7 30.96, 256.67 44.63 M256.67 44.63 C256.91 53.68, 249.9 60.35, 241.79 59.51 M256.67 44.63 C257.87 55.35, 251.35 61.62, 241.79 59.51 M241.79 59.51 C162.85 58.56, 83.31 60.72, 14.88 59.51 M241.79 59.51 C155.05 58.9, 68.99 59.57, 14.88 59.51 M14.88 59.51 C3.06 59.41, 0.18 55.71, 0 44.63 M14.88 59.51 C3.58 58.3, 0.96 54.99, 0 44.63 M0 44.63 C-1.38 34.13, 1.77 23.92, 0 14.88 M0 44.63 C1 34.35, 0.2 22.96, 0 14.88 M0 14.88 C0.84 3.32, 3.9 1.29, 14.88 0 M0 14.88 C1.37 3.95, 3.22 -1.16, 14.88 0" stroke="#364fc7" stroke-width="1" fill="none"></path></g><g transform="translate(357.8492126464844 122.53326416015625) rotate(0 58.5 12.5)"><text x="58.5" y="18" font-family="Virgil, Segoe UI Emoji" font-size="20px" fill="#364fc7" text-anchor="middle" style="white-space: pre;" direction="ltr">Redux Saga</text></g><g stroke-linecap="round" transform="translate(550.2276611328125 106.09115600585938) rotate(0 128.33493041992188 29.755615234375)"><path d="M14.88 0 M14.88 0 C60.55 1.07, 110.49 0.49, 241.79 0 M14.88 0 C82.77 -1.19, 149.62 -0.26, 241.79 0 M241.79 0 C251.75 -1.96, 257.33 3.34, 256.67 14.88 M241.79 0 C252.36 0.58, 255.1 4.41, 256.67 14.88 M256.67 14.88 C257.24 24.95, 257.71 35.93, 256.67 44.63 M256.67 14.88 C257.08 22.33, 255.93 30.39, 256.67 44.63 M256.67 44.63 C258.63 53.74, 252.55 58.47, 241.79 59.51 M256.67 44.63 C255.1 53.26, 249.66 57.3, 241.79 59.51 M241.79 59.51 C190.16 58.16, 139.36 57.71, 14.88 59.51 M241.79 59.51 C193.99 60.57, 147.21 59.56, 14.88 59.51 M14.88 59.51 C5.09 60.16, 1.16 56.52, 0 44.63 M14.88 59.51 C5.78 61.6, 1.93 53.76, 0 44.63 M0 44.63 C-0.47 39.09, 0.74 31.11, 0 14.88 M0 44.63 C-0.99 34.21, 0.68 25.07, 0 14.88 M0 14.88 C1.19 6.75, 5.18 -1.21, 14.88 0 M0 14.88 C1.63 5.75, 4.55 -1.6, 14.88 0" stroke="#862e9c" stroke-width="1" fill="none"></path></g><g transform="translate(618.0625915527344 123.34677124023438) rotate(0 60.5 12.5)"><text x="60.5" y="18" font-family="Virgil, Segoe UI Emoji" font-size="20px" fill="#862e9c" text-anchor="middle" style="white-space: pre;" direction="ltr">Immutable.js</text></g><g stroke-linecap="round" transform="translate(22.85272216796875 35.42254638671875) rotate(0 128.33493041992188 29.755615234375)"><path d="M14.88 0 M14.88 0 C96.45 -2.95, 174.35 -2.99, 241.79 0 M14.88 0 C70.23 -1.06, 125.45 -0.35, 241.79 0 M241.79 0 C252.14 0.41, 255.69 6.47, 256.67 14.88 M241.79 0 C251.15 -1.56, 257.85 3.46, 256.67 14.88 M256.67 14.88 C255.76 20.87, 257.79 28.74, 256.67 44.63 M256.67 14.88 C256.24 26.54, 256.34 38.13, 256.67 44.63 M256.67 44.63 C257.83 55.38, 252.26 59.95, 241.79 59.51 M256.67 44.63 C256.92 54.22, 250.89 61.26, 241.79 59.51 M241.79 59.51 C163.87 59.78, 84.6 59.72, 14.88 59.51 M241.79 59.51 C178.33 60.08, 114.12 60.11, 14.88 59.51 M14.88 59.51 C6.29 59.75, -0.36 52.79, 0 44.63 M14.88 59.51 C5.66 58.97, -0.74 53.37, 0 44.63 M0 44.63 C-0.08 38.69, -0.9 28.35, 0 14.88 M0 44.63 C-0.09 36.93, -0.75 27.76, 0 14.88 M0 14.88 C0.3 6.25, 4.63 1.55, 14.88 0 M0 14.88 C0.07 5.79, 5.66 1.93, 14.88 0" stroke="#364fc7" stroke-width="1" fill="none"></path></g><g transform="translate(84.68765258789062 52.67816162109375) rotate(0 66.5 12.5)"><text x="66.5" y="18" font-family="Virgil, Segoe UI Emoji" font-size="20px" fill="#364fc7" text-anchor="middle" style="white-space: pre;" direction="ltr">React Router</text></g><g stroke-linecap="round" transform="translate(550.5206298828125 36.17327880859375) rotate(0 128.33493041992188 29.755615234375)"><path d="M14.88 0 M14.88 0 C92.15 -1.52, 165.47 -1.94, 241.79 0 M14.88 0 C78.14 -0.49, 139.61 -0.02, 241.79 0 M241.79 0 C250.72 -1.2, 255.83 4.3, 256.67 14.88 M241.79 0 C250.8 2.2, 254.71 6.57, 256.67 14.88 M256.67 14.88 C255.36 24.05, 254.83 30.71, 256.67 44.63 M256.67 14.88 C256.42 25.89, 256.31 38.87, 256.67 44.63 M256.67 44.63 C255.6 53.58, 253.59 59.59, 241.79 59.51 M256.67 44.63 C255.64 53.16, 253.71 57.25, 241.79 59.51 M241.79 59.51 C164.9 60.34, 85 59.91, 14.88 59.51 M241.79 59.51 C153.39 59.2, 64.12 58.98, 14.88 59.51 M14.88 59.51 C5.24 59.77, 0.16 56.25, 0 44.63 M14.88 59.51 C5.75 59.99, 1.15 53.75, 0 44.63 M0 44.63 C0.86 35.23, 1.48 24.67, 0 14.88 M0 44.63 C0.5 33.31, -0.38 21.77, 0 14.88 M0 14.88 C-1.56 6.08, 6.33 -1.18, 14.88 0 M0 14.88 C-0.77 6.6, 4.31 -0.21, 14.88 0" stroke="#364fc7" stroke-width="1" fill="none"></path></g><g transform="translate(627.8555603027344 53.42889404296875) rotate(0 51 12.5)"><text x="51" y="18" font-family="Virgil, Segoe UI Emoji" font-size="20px" fill="#364fc7" text-anchor="middle" style="white-space: pre;" direction="ltr">TypeScript</text></g><g stroke-linecap="round" transform="translate(287.04022216796875 37.347900390625) rotate(0 128.33493041992188 29.755615234375)"><path d="M14.88 0 M14.88 0 C80.99 -0.68, 149.9 0.55, 241.79 0 M14.88 0 C65.89 -0.77, 115.23 -0.7, 241.79 0 M241.79 0 C250.06 1.07, 255.01 3.88, 256.67 14.88 M241.79 0 C253.86 -1.96, 256.45 3.04, 256.67 14.88 M256.67 14.88 C257.24 23.18, 257.98 30.99, 256.67 44.63 M256.67 14.88 C255.93 22.63, 255.58 30.82, 256.67 44.63 M256.67 44.63 C255.73 55.61, 251.78 59.09, 241.79 59.51 M256.67 44.63 C256.93 52.27, 249.9 58.9, 241.79 59.51 M241.79 59.51 C156.27 61.62, 71.87 60.84, 14.88 59.51 M241.79 59.51 C195.38 60.48, 149.64 61.4, 14.88 59.51 M14.88 59.51 C3.24 58.61, 0.17 54.98, 0 44.63 M14.88 59.51 C5.93 59.55, -0.95 55.75, 0 44.63 M0 44.63 C-0.03 39.5, -0.06 31.21, 0 14.88 M0 44.63 C0.47 33.1, -0.3 22.97, 0 14.88 M0 14.88 C-1.38 3.54, 6.23 0.83, 14.88 0 M0 14.88 C-1.92 4.66, 5.74 -1.81, 14.88 0" stroke="#862e9c" stroke-width="1" fill="none"></path></g><g transform="translate(389.8751525878906 54.603515625) rotate(0 25.5 12.5)"><text x="25.5" y="18" font-family="Virgil, Segoe UI Emoji" font-size="20px" fill="#862e9c" text-anchor="middle" style="white-space: pre;" direction="ltr">axios</text></g></svg>